<?xml version="1.0" encoding="UTF-8"?>
<!DOCTYPE svg PUBLIC "-//W3C//DTD SVG 1.1//EN" "http://www.w3.org/Graphics/SVG/1.1/DTD/svg11.dtd">
<!-- Creator: CorelDRAW 2018 (64-Bit Evaluation Version) -->
<svg xmlns="http://www.w3.org/2000/svg" xml:space="preserve" width="70mm" height="65.5835mm" version="1.1" style="shape-rendering:geometricPrecision; text-rendering:geometricPrecision; image-rendering:optimizeQuality; fill-rule:evenodd; clip-rule:evenodd"
viewBox="0 0 2578.95 2416.23"
 xmlns:xlink="http://www.w3.org/1999/xlink">
 <defs>
  <style type="text/css">
   <![CDATA[
    .fil0 {fill:url(#id0)}
    .fil1 {fill:url(#id1)}
    .fil2 {fill:url(#id2)}
    .fil3 {fill:url(#id3)}
    .fil4 {fill:url(#id4)}
    .fil5 {fill:url(#id5);fill-rule:nonzero}
    .fil6 {fill:url(#id6);fill-rule:nonzero}
   ]]>
  </style>
  <linearGradient id="id0" gradientUnits="userSpaceOnUse" x1="1289.48" y1="1727.79" x2="1289.48" y2="790.54">
   <stop offset="0" style="stop-opacity:1; stop-color:#FFBB00"/>
   <stop offset="0.25098" style="stop-opacity:1; stop-color:#FAD515"/>
   <stop offset="0.478431" style="stop-opacity:1; stop-color:#F5EB26"/>
   <stop offset="0.580392" style="stop-opacity:1; stop-color:#26DCF4"/>
   <stop offset="0.74902" style="stop-opacity:1; stop-color:#29B1E6"/>
   <stop offset="1" style="stop-opacity:1; stop-color:#2B8EDB"/>
  </linearGradient>
  <radialGradient id="id1" gradientUnits="userSpaceOnUse" gradientTransform="matrix(-1.37896 -0.143375 -0.143375 1.37896 1812 -660)" cx="642.27" cy="1983.79" r="428.48" fx="642.27" fy="1983.79">
   <stop offset="0" style="stop-opacity:1; stop-color:#26E0F5"/>
   <stop offset="1" style="stop-opacity:1; stop-color:#2B88D9"/>
  </radialGradient>
  <radialGradient id="id2" gradientUnits="userSpaceOnUse" gradientTransform="matrix(1.68719 -0.215809 0.215809 1.68718 -847 -1154)" xlink:href="#id1" cx="642.27" cy="1880.83" r="428.48" fx="642.27" fy="1880.83">
  </radialGradient>
  <radialGradient id="id3" gradientUnits="userSpaceOnUse" gradientTransform="matrix(1.37896 -0.143375 0.143375 1.37896 -957 -497)" xlink:href="#id1" cx="1775.58" cy="1983.79" r="428.48" fx="1775.58" fy="1983.79">
  </radialGradient>
  <radialGradient id="id4" gradientUnits="userSpaceOnUse" gradientTransform="matrix(0.861034 -0.0542932 0.0542935 0.861035 117 146)" cx="1083.16" cy="624.05" r="1073.24" fx="1083.16" fy="624.05">
   <stop offset="0" style="stop-opacity:1; stop-color:#F5EB26"/>
   <stop offset="1" style="stop-opacity:1; stop-color:#FFBB00"/>
  </radialGradient>
  <linearGradient id="id5" gradientUnits="userSpaceOnUse" x1="1353.37" y1="2393.78" x2="1749.47" y2="2345.72">
   <stop offset="0" style="stop-opacity:1; stop-color:#1C98D6"/>
   <stop offset="1" style="stop-opacity:1; stop-color:#26E0F5"/>
  </linearGradient>
  <linearGradient id="id6" gradientUnits="userSpaceOnUse" xlink:href="#id5" x1="583.64" y1="2393.78" x2="979.74" y2="2345.72">
  </linearGradient>
 </defs>
 <g id="Layer_x0020_1">
  <metadata id="CorelCorpID_0Corel-Layer"/>
  <path class="fil0" d="M1406.62 867.35c-1.41,6.97 -4.02,-0.85 0,0zm317.77 494.74c10.82,-20.15 61.38,-35.88 67.02,-37.57 10.98,-3.08 13.06,-13.39 15.96,-20.46 8.01,-19.55 -37.4,-86.45 54.75,-87.02 53.89,-0.33 72.47,-13.6 72.35,-33.64 -0.18,-29.41 -54.09,-58.89 -71.19,-81.04 22.92,-18.18 6.58,-33.93 -4.88,-35.62 0.85,-0.1 1.55,-0.4 1.89,-1.02 36.09,-66.75 -37.62,-75.05 -83.35,-77.75 -49.94,-2.95 -54.99,-17.19 -84.31,7.37 -33.36,-22.41 -46.62,-37.99 -69.12,-17.44 -4.8,4.38 -12.57,11.47 -30.3,19.39l-18.49 -0.32c-20.8,-0.4 -43.75,1.35 -44.05,1.11 -32.53,-26.65 7.23,-65.6 -83.72,-65.54 -36.89,0.03 -0.1,-41.28 -38.36,-64.34 -0.78,-0.48 -1.44,-0.74 -1.97,-0.85 0.33,-1.63 0.6,-4.06 0.7,-7.6 0.42,-15.21 -8.94,-21.51 -58.26,-22.92 -76.64,-2.19 -79.27,43.02 -90.17,50.06 -9.38,6.06 -45.11,9 -68.05,23.35 -49.76,31.14 -10.21,76.98 -6.66,87.39 -11.06,19.78 -178.76,16.7 -200.93,-10.2 -25.88,-31.42 -128.28,-21.76 -153.93,-19.28 -39.43,3.81 -90.95,54.35 -102.14,58.62 -13.29,5.05 -14.56,21.64 -4.3,29.16 0.85,0.62 -0.48,2.32 -0.09,5.49 1.03,8.22 2.11,16.96 8.33,25.59 57.99,80.61 -26.43,42.07 -85.65,269.43 -8.6,33.01 40.17,63.64 68.24,70.95 11.79,3.07 21.87,1.63 27.94,-5.31 1.42,-0.26 20.34,0.72 42.11,2.09 65.17,4.11 53.55,13.78 68.53,14.6 19.28,1.06 96.25,-29.11 110.78,-44.42 3.75,-3.94 5.88,-8.34 6.16,-13.25 2.43,-14.82 66.43,-39.69 82.92,-35.95 80.74,32.26 81.57,37.71 82.75,45.54 1.42,9.45 3.08,20.37 20.34,37.39 23.97,23.61 29.5,34.58 31.54,38.63 6.32,12.56 21.57,15.78 33.64,31.37 -4.96,0.81 -9.45,0.92 -10.1,0.32 -7.54,-6.76 -18.37,-5.81 -24.37,1.59 -0.06,0.08 -55.46,-6.26 -30.64,47.24 5.01,10.82 -78.88,96.29 -15.55,115.53 21.73,6.6 76.53,-31.25 78.4,-21.6 3.36,17.34 25.35,18.59 31.72,4.14 3.66,-8.25 1.12,-23.35 -2.16,-37.1l22.89 -21.1c18.3,-24.15 31.08,-52.86 33.61,-74.56 1.51,-12.94 21.96,-25.28 37.6,-30.34 0.53,1.46 1.26,2.98 2.24,4.51 2.79,4.7 6.86,6.96 11.64,8.48 -5.32,12.54 8.67,24.78 24.7,19.65 21.13,-6.76 35.53,20.4 73.57,-2.1 13.75,-8.13 19.71,-0.31 27.99,-1.01 -27.63,15.26 -73.47,46.11 -54.52,71.48 8.49,11.37 26.08,13.05 45.85,14.94 50.37,4.8 30.53,3.74 32.67,26.22 1.95,20.54 4.02,42.18 17.74,52.31 36.95,27.27 89.65,-68.33 95.98,-66.4 12.6,3.84 21.94,6.68 34.26,-19.57 20.71,-44.15 68.58,11.16 79.65,-64.27 2.11,-14.38 -0.14,-24.45 -5.14,-31.27 -21.85,-29.78 -69.7,11.63 -75.68,22.77l-0.38 2.39c-13.47,-1.01 -38.5,-35.56 -42.9,-39.24 21.29,-9.93 20.78,-46.49 24.95,-51.52 32.64,-39.36 70.91,-31.96 89.96,-67.48z"/>
  <path class="fil1" d="M965.55 2416.23l260.03 0 0 -225.03c-0.02,-0.47 -0.02,-0.95 0,-1.47 3.06,-44.76 -4.48,-88.96 -21.27,-129.3 -16.79,-40.36 -42.77,-76.86 -76.64,-106.24 -26.67,-23.15 -57.01,-40.85 -89.34,-52.66 -32.68,-11.92 -67.35,-17.86 -102.35,-17.37 -36.33,0.52 -70.06,-2.57 -102.91,-9.64 -32.88,-7.06 -64.94,-18.1 -97.87,-33.53 -3.95,-1.85 -7.91,-3.72 -11.83,-5.65 -0.42,-0.18 -0.83,-0.38 -1.23,-0.6 -12.99,-6.41 -25.76,-13.15 -38.26,-20.24 -5.53,-3.12 -11,-6.31 -16.43,-9.58 -0.22,-0.11 -0.42,-0.25 -0.62,-0.38 -10.92,-6.57 -21.61,-13.38 -32.06,-20.43 -28.39,-19.15 -58.71,-30.23 -87,-29.06 -24.55,0.98 -47.88,11.36 -67.37,33.97 -0.65,0.76 -1.05,1.51 -1.25,2.27 -0.18,0.78 -0.15,1.68 0.09,2.64 0.22,0.96 0.62,1.76 1.14,2.34 0.53,0.63 1.27,1.14 2.18,1.49 42.48,16.88 82.62,38.78 119.52,65.14 36.92,26.39 70.68,57.24 100.41,91.98 3.93,4.6 3.39,11.5 -1.18,15.45 -4.59,3.93 -11.52,3.39 -15.45,-1.2 -28.6,-33.39 -61.01,-63.04 -96.49,-88.38 -35.54,-25.41 -74.11,-46.46 -114.9,-62.66 -4.2,-1.65 -7.77,-4.17 -10.58,-7.39 -2.84,-3.29 -4.87,-7.17 -5.94,-11.54 -1.07,-4.35 -1.07,-8.73 -0.07,-12.92 0.8,-3.42 2.3,-6.64 4.4,-9.55 -27.19,-23.96 -52.75,-49.52 -76.55,-76.58 -26.41,-30.05 -50.7,-61.95 -72.66,-95.48 -11.81,-11.45 -26.16,-19.13 -41.39,-22.82 -15.78,-3.82 -32.55,-3.32 -48.37,1.77 -0.85,0.27 -1.54,0.63 -2.06,1.09 -0.51,0.47 -0.95,1.09 -1.32,1.9 -0.35,0.8 -0.53,1.56 -0.53,2.23 0,0.69 0.18,1.45 0.56,2.3 60.49,136.62 148.96,256.5 257.68,353.25 109.18,97.15 238.73,170.96 380.85,214.98 31.61,9.8 57.93,28.38 76.7,52.8 18.8,24.42 30.03,54.64 31.37,87.71 1.41,34.05 1.32,68.11 -0.25,102.11 -0.21,4.78 -0.46,9.53 -0.76,14.29zm-388.35 -680.66c-2.92,-32.46 -4.31,-65.08 -4.17,-97.69 0,-0.09 0,-0.15 0,-0.22 0.03,-4.36 0.07,-8.69 0.14,-13.02 0.69,-41.12 3.77,-82.15 9.28,-122.85 2.12,-20.42 0.09,-40.78 -5.69,-59.98 -5.8,-19.35 -15.43,-37.48 -28.35,-53.21 -0.67,-0.81 -1.47,-1.39 -2.32,-1.71 -0.85,-0.31 -1.85,-0.37 -2.9,-0.2 -1.09,0.2 -1.99,0.58 -2.66,1.13 -0.69,0.61 -1.23,1.41 -1.58,2.41 -22.01,61.78 -37.19,125.52 -45.39,190.13 -7.21,56.92 -8.86,114.48 -5.29,172.19 18.08,-12.46 37.98,-18.55 58.63,-19.4 10,-0.41 20.14,0.45 30.31,2.41zm83.99 39.67c0.16,-35.7 6.7,-70.84 19.05,-103.81 14.73,-39.38 37.7,-75.64 67.93,-106.15l0.03 0.02 0.22 -0.24c15.16,-14.31 26.95,-31.37 35,-49.94 8.13,-18.75 12.43,-39.07 12.53,-59.74 0,-1.08 -0.27,-2.08 -0.78,-2.93 -0.49,-0.81 -1.23,-1.49 -2.19,-1.99 -1,-0.51 -2.03,-0.73 -2.99,-0.67 -0.94,0.06 -1.9,0.42 -2.79,1.04 -37.45,26.68 -72.62,56.35 -105.12,88.7 -31.68,31.52 -60.86,65.56 -87.15,101.82 -0.02,33.44 1.58,66.94 4.85,100.37 16.07,5.65 31.99,13.89 47.26,24.2 4.71,3.18 9.44,6.27 14.17,9.31zm59.76 34.4c10.87,-32.1 27.88,-61.42 49.78,-86.49 24.56,-28.1 55.21,-50.87 90.22,-66.21 13.72,-7.3 25.8,-16.88 35.76,-28.15 10.14,-11.45 18.17,-24.62 23.66,-38.95 0.4,-1.03 0.52,-2.07 0.34,-3.03 -0.16,-0.87 -0.63,-1.76 -1.39,-2.61l0.02 -0.03 -0.02 -0.02c-0.72,-0.8 -1.56,-1.36 -2.48,-1.65 -0.87,-0.27 -1.92,-0.27 -3.04,0 -41.41,10.49 -81.24,26.05 -118.59,46.21 -36.48,19.67 -70.59,43.71 -101.5,71.66 -8.11,28.49 -11.68,58.35 -10.34,88.56 3.75,2.21 7.52,4.4 11.29,6.54 8.69,4.91 17.44,9.64 26.28,14.17z"/>
  <path class="fil2" d="M577.19 1735.58c-2.9,-32.46 -4.29,-65.08 -4.16,-97.69 0,-0.09 0,-0.15 0,-0.22 0.02,-4.36 0.07,-8.69 0.14,-13.02 0.68,-41.12 3.77,-82.15 9.27,-122.85 2.13,-20.42 0.09,-40.78 -5.67,-59.98 -5.82,-19.35 -15.43,-37.48 -28.37,-53.21 -0.67,-0.81 -1.46,-1.39 -2.31,-1.71 -0.85,-0.31 -1.86,-0.37 -2.92,-0.2 -1.08,0.2 -1.97,0.58 -2.64,1.13 -0.7,0.61 -1.24,1.41 -1.59,2.41 -22.02,61.78 -37.2,125.52 -45.39,190.13 -7.21,56.92 -8.87,114.48 -5.29,172.19 18.08,-12.46 37.97,-18.55 58.63,-19.4 10,-0.41 20.13,0.45 30.3,2.41zm388.37 680.66l260.02 0 0 -225.03c-0.02,-0.47 -0.02,-0.95 0,-1.47 3.06,-44.76 -4.48,-88.96 -21.28,-129.3 -16.79,-40.36 -42.77,-76.86 -76.64,-106.24 -26.68,-23.15 -57.02,-40.85 -89.34,-52.66 -32.67,-11.92 -67.36,-17.86 -102.36,-17.37 -36.32,0.52 -70.06,-2.57 -102.91,-9.64 -32.9,-7.06 -64.95,-18.1 -97.87,-33.53 -3.96,-1.85 -7.91,-3.72 -11.84,-5.65 -0.42,-0.18 -0.84,-0.38 -1.23,-0.6 -12.99,-6.41 -25.75,-13.15 -38.26,-20.24 -5.53,-3.12 -11.02,-6.31 -16.44,-9.58 -0.22,-0.11 -0.43,-0.25 -0.63,-0.38 -10.91,-6.57 -21.6,-13.38 -32.05,-20.43 -28.39,-19.15 -58.71,-30.23 -87,-29.06 -24.54,0.98 -47.88,11.36 -67.36,33.97 -0.64,0.76 -1.06,1.51 -1.25,2.27 -0.18,0.78 -0.15,1.68 0.08,2.64 0.24,0.96 0.62,1.76 1.13,2.34 0.55,0.63 1.29,1.14 2.19,1.49 42.5,16.88 82.62,38.78 119.53,65.14 36.92,26.39 70.67,57.24 100.42,91.98 3.94,4.6 3.4,11.5 -1.19,15.45 -4.59,3.93 -11.51,3.39 -15.44,-1.2 -28.6,-33.39 -61.02,-63.04 -96.48,-88.38 -35.55,-25.41 -74.12,-46.46 -114.9,-62.66 -4.21,-1.65 -7.78,-4.17 -10.59,-7.39 -2.84,-3.29 -4.86,-7.17 -5.94,-11.54 -1.08,-4.35 -1.08,-8.73 -0.08,-12.92 0.82,-3.42 2.3,-6.64 4.41,-9.55 -27.19,-23.96 -52.76,-49.52 -76.54,-76.58 -26.41,-30.05 -50.7,-61.95 -72.68,-95.48 -11.8,-11.45 -26.14,-19.13 -41.37,-22.82 -15.81,-3.82 -32.56,-3.32 -48.39,1.77 -0.85,0.27 -1.53,0.63 -2.04,1.09 -0.52,0.47 -0.95,1.09 -1.31,1.9 -0.37,0.8 -0.55,1.56 -0.56,2.23 0,0.69 0.18,1.45 0.56,2.3 60.49,136.62 148.96,256.5 257.68,353.25 109.18,97.15 238.74,170.96 380.84,214.98 31.6,9.8 57.94,28.38 76.72,52.8 18.79,24.42 30,54.64 31.36,87.71 1.4,34.05 1.31,68.11 -0.25,102.11 -0.22,4.78 -0.47,9.53 -0.75,14.29zm-304.37 -640.99c0.16,-35.7 6.71,-70.84 19.04,-103.81 14.73,-39.38 37.71,-75.64 67.93,-106.15l0.02 0.02 0.24 -0.24c15.14,-14.31 26.93,-31.37 34.98,-49.94 8.13,-18.75 12.44,-39.07 12.54,-59.74 0,-1.08 -0.27,-2.08 -0.78,-2.93 -0.49,-0.81 -1.23,-1.49 -2.19,-1.99 -0.99,-0.51 -2.02,-0.73 -3,-0.67 -0.94,0.06 -1.88,0.42 -2.78,1.04 -37.46,26.68 -72.62,56.35 -105.13,88.7 -31.68,31.52 -60.84,65.56 -87.16,101.82 -0.02,33.44 1.6,66.94 4.86,100.37 16.07,5.65 31.98,13.89 47.26,24.2 4.7,3.18 9.43,6.27 14.18,9.31zm59.75 34.4c10.88,-32.1 27.9,-61.42 49.8,-86.49 24.54,-28.1 55.21,-50.87 90.19,-66.21 13.74,-7.3 25.81,-16.88 35.77,-28.15 10.14,-11.45 18.17,-24.62 23.67,-38.95 0.4,-1.03 0.5,-2.07 0.33,-3.03 -0.15,-0.87 -0.62,-1.76 -1.38,-2.61l0.02 -0.03 -0.02 -0.02c-0.72,-0.8 -1.58,-1.36 -2.48,-1.65 -0.88,-0.27 -1.91,-0.27 -3.03,0 -41.41,10.49 -81.23,26.05 -118.6,46.21 -36.48,19.67 -70.58,43.71 -101.48,71.66 -8.11,28.49 -11.69,58.35 -10.36,88.56 3.76,2.21 7.53,4.4 11.3,6.54 8.68,4.91 17.44,9.64 26.27,14.17z"/>
  <path class="fil3" d="M1613.4 2416.23l-260.03 0 0 -225.03c0.02,-0.47 0.02,-0.95 0,-1.47 -3.06,-44.76 4.48,-88.96 21.27,-129.3 16.79,-40.36 42.77,-76.86 76.64,-106.24 26.67,-23.15 57.01,-40.85 89.34,-52.66 32.68,-11.92 67.35,-17.86 102.35,-17.37 36.33,0.52 70.06,-2.57 102.91,-9.64 32.88,-7.06 64.94,-18.1 97.87,-33.53 3.95,-1.85 7.91,-3.72 11.83,-5.65 0.42,-0.18 0.83,-0.38 1.23,-0.6 12.99,-6.41 25.76,-13.15 38.26,-20.24 5.53,-3.12 11,-6.31 16.43,-9.58 0.22,-0.11 0.42,-0.25 0.62,-0.38 10.92,-6.57 21.61,-13.38 32.06,-20.43 28.39,-19.15 58.71,-30.23 87,-29.06 24.55,0.98 47.88,11.36 67.37,33.97 0.65,0.76 1.05,1.51 1.25,2.27 0.18,0.78 0.15,1.68 -0.09,2.64 -0.22,0.96 -0.62,1.76 -1.14,2.34 -0.53,0.63 -1.27,1.14 -2.18,1.49 -42.48,16.88 -82.62,38.78 -119.52,65.14 -36.92,26.39 -70.68,57.24 -100.41,91.98 -3.93,4.6 -3.39,11.5 1.18,15.45 4.59,3.93 11.52,3.39 15.45,-1.2 28.6,-33.39 61.01,-63.04 96.49,-88.38 35.54,-25.41 74.11,-46.46 114.9,-62.66 4.2,-1.65 7.77,-4.17 10.58,-7.39 2.84,-3.29 4.87,-7.17 5.94,-11.54 1.07,-4.35 1.07,-8.73 0.07,-12.92 -0.8,-3.42 -2.3,-6.64 -4.4,-9.55 27.19,-23.96 52.75,-49.52 76.55,-76.58 26.41,-30.05 50.7,-61.95 72.66,-95.48 11.81,-11.45 26.16,-19.13 41.39,-22.82 15.78,-3.82 32.55,-3.32 48.37,1.77 0.85,0.27 1.54,0.63 2.06,1.09 0.51,0.47 0.95,1.09 1.32,1.9 0.35,0.8 0.53,1.56 0.53,2.23 0,0.69 -0.18,1.45 -0.56,2.3 -60.49,136.62 -148.96,256.5 -257.68,353.25 -109.18,97.15 -238.73,170.96 -380.85,214.98 -31.61,9.8 -57.93,28.38 -76.7,52.8 -18.8,24.42 -30.03,54.64 -31.37,87.71 -1.41,34.05 -1.32,68.11 0.25,102.11 0.21,4.78 0.46,9.53 0.76,14.29zm388.35 -680.66c2.92,-32.46 4.31,-65.08 4.17,-97.69 0,-0.09 0,-0.15 0,-0.22 -0.03,-4.36 -0.07,-8.69 -0.14,-13.02 -0.69,-41.12 -3.77,-82.15 -9.28,-122.85 -2.12,-20.42 -0.09,-40.78 5.69,-59.98 5.8,-19.35 15.43,-37.48 28.35,-53.21 0.67,-0.81 1.47,-1.39 2.32,-1.71 0.85,-0.31 1.85,-0.37 2.9,-0.2 1.09,0.2 1.99,0.58 2.66,1.13 0.69,0.61 1.23,1.41 1.58,2.41 22.01,61.78 37.19,125.52 45.39,190.13 7.21,56.92 8.86,114.48 5.29,172.19 -18.08,-12.46 -37.98,-18.55 -58.63,-19.4 -10,-0.41 -20.14,0.45 -30.31,2.41zm-83.99 39.67c-0.16,-35.7 -6.7,-70.84 -19.05,-103.81 -14.73,-39.38 -37.7,-75.64 -67.93,-106.15l-0.03 0.02 -0.22 -0.24c-15.16,-14.31 -26.95,-31.37 -35,-49.94 -8.13,-18.75 -12.43,-39.07 -12.53,-59.74 0,-1.08 0.27,-2.08 0.78,-2.93 0.49,-0.81 1.23,-1.49 2.19,-1.99 1,-0.51 2.03,-0.73 2.99,-0.67 0.94,0.06 1.9,0.42 2.79,1.04 37.45,26.68 72.62,56.35 105.12,88.7 31.68,31.52 60.86,65.56 87.15,101.82 0.02,33.44 -1.58,66.94 -4.85,100.37 -16.07,5.65 -31.99,13.89 -47.26,24.2 -4.71,3.18 -9.44,6.27 -14.17,9.31zm-59.76 34.4c-10.87,-32.1 -27.88,-61.42 -49.78,-86.49 -24.56,-28.1 -55.21,-50.87 -90.22,-66.21 -13.72,-7.3 -25.8,-16.88 -35.76,-28.15 -10.14,-11.45 -18.17,-24.62 -23.66,-38.95 -0.4,-1.03 -0.52,-2.07 -0.34,-3.03 0.16,-0.87 0.63,-1.76 1.39,-2.61l-0.02 -0.03 0.02 -0.02c0.72,-0.8 1.56,-1.36 2.48,-1.65 0.87,-0.27 1.92,-0.27 3.04,0 41.41,10.49 81.24,26.05 118.59,46.21 36.48,19.67 70.59,43.71 101.5,71.66 8.11,28.49 11.68,58.35 10.34,88.56 -3.75,2.21 -7.52,4.4 -11.29,6.54 -8.69,4.91 -17.44,9.64 -26.28,14.17z"/>
  <path class="fil4" d="M442.41 1300.1c-60.77,-289.99 86.1,-583.1 373.44,-745.23 287.35,-162.15 659.89,-162.15 947.25,0 287.33,162.14 434.22,455.24 373.44,745.23 -24.85,-384.95 -396.73,-686.2 -847.07,-686.2 -450.35,0 -822.22,301.25 -847.06,686.2zm2136.53 -356.08c-16.26,-4.46 -33.57,-7.45 -51.59,-8.95 -38.85,-3.23 -80.49,0.53 -121.59,11.54 -41.29,11.06 -79.25,28.6 -111.14,50.73 -14.8,10.27 -28.27,21.51 -40.11,33.51 16.27,4.46 33.59,7.45 51.59,8.95 38.85,3.23 80.49,-0.53 121.59,-11.54 41.29,-11.06 79.24,-28.6 111.14,-50.73 14.8,-10.27 28.27,-21.5 40.1,-33.5zm-2578.95 0c11.84,12 25.31,23.24 40.11,33.51 31.89,22.12 69.85,39.66 111.13,50.73 41.11,11.01 82.75,14.77 121.6,11.54 18.01,-1.5 35.33,-4.49 51.59,-8.95 -11.84,-12 -25.31,-23.24 -40.11,-33.51 -31.89,-22.12 -69.85,-39.67 -111.14,-50.73 -41.11,-11.01 -82.75,-14.77 -121.6,-11.54 -18.01,1.5 -35.32,4.49 -51.59,8.95zm345.45 -598.56c4.28,16.33 10.36,32.85 18.09,49.24 16.52,35.03 40.61,69.17 70.87,99.43 30.25,30.25 64.39,54.35 99.42,70.87 16.4,7.73 32.92,13.81 49.25,18.09 -4.28,-16.33 -10.36,-32.85 -18.09,-49.24 -16.52,-35.03 -40.62,-69.17 -70.87,-99.42 -30.25,-30.25 -64.4,-54.35 -99.43,-70.87 -16.39,-7.73 -32.91,-13.81 -49.24,-18.09zm598.56 -345.45c-4.46,16.27 -7.46,33.58 -8.95,51.59 -3.23,38.85 0.53,80.49 11.55,121.6 11.06,41.29 28.6,79.25 50.72,111.13 10.27,14.8 21.51,28.27 33.51,40.12 4.46,-16.27 7.45,-33.58 8.95,-51.59 3.23,-38.85 -0.53,-80.49 -11.54,-121.6 -11.06,-41.29 -28.61,-79.25 -50.73,-111.14 -10.27,-14.8 -21.5,-28.27 -33.5,-40.11zm690.92 0.01c-12,11.84 -23.23,25.3 -33.5,40.1 -22.13,31.89 -39.68,69.85 -50.75,111.14 -11.01,41.1 -14.76,82.75 -11.53,121.6 1.5,18.02 4.49,35.33 8.95,51.6 12.01,-11.84 23.24,-25.31 33.52,-40.11 22.13,-31.89 39.66,-69.85 50.73,-111.15 11.01,-41.1 14.77,-82.74 11.54,-121.59 -1.5,-18.01 -4.49,-35.32 -8.95,-51.59zm598.57 345.45c-16.33,4.28 -32.85,10.36 -49.25,18.09 -35.03,16.51 -69.17,40.61 -99.43,70.87 -30.25,30.25 -54.34,64.39 -70.86,99.43 -7.73,16.39 -13.81,32.91 -18.08,49.24 16.32,-4.28 32.85,-10.36 49.24,-18.09 35.23,-16.62 69.37,-40.66 99.41,-70.7l0 -0.17c30.26,-30.25 54.36,-64.4 70.88,-99.43 7.73,-16.39 13.81,-32.91 18.09,-49.24z"/>
  <path class="fil5" d="M1383.07 2416.23c-9.69,-2.93 -19.56,-5.51 -29.7,-7.66l0 -29.6c40.75,7.92 76.91,22.38 111.93,37.26l-82.23 0zm546.34 -348c-29.62,8.7 -57.52,20.65 -86.23,32.94 -56.08,24 -114.07,48.83 -188.39,48.83 -74.31,0 -132.3,-24.83 -188.38,-48.83 -31.22,-13.37 -61.48,-26.33 -94.03,-35.15 0.73,-1.88 1.48,-3.75 2.26,-5.6 2.99,-7.18 6.26,-14.23 9.82,-21.15 33.12,9.38 63.53,22.4 93.39,35.18 55.84,23.9 108.58,46.49 176.93,46.49 68.36,0 121.11,-22.59 176.96,-46.49 49.85,-21.35 101.22,-43.34 164.23,-47.95 -21.64,14.73 -43.83,28.65 -66.57,41.72zm-311.37 195.44c-57.33,-6.41 -105.13,-26.88 -151.63,-46.79 -37.39,-16.01 -73.4,-31.42 -113.63,-39.86 -0.24,-9.87 0.04,-19.69 0.82,-29.44 45.54,8.88 85.36,25.93 124.26,42.59 48.6,20.8 94.86,40.61 151.1,45.4 -4.52,8.89 -8.19,18.29 -10.92,28.1zm-6.24 114.95c-54.58,-7.15 -100.59,-26.85 -145.39,-46.03 -37.21,-15.93 -73.05,-31.27 -113.04,-39.74l0 -29.61c45.64,8.87 85.53,25.95 124.49,42.63 43.45,18.61 85.03,36.41 133.54,43.4 0.01,9.79 0.14,19.57 0.4,29.35z"/>
  <path class="fil6" d="M1195.88 2416.23c9.69,-2.93 19.56,-5.51 29.7,-7.66l0 -29.6c-40.75,7.92 -76.91,22.38 -111.93,37.26l82.23 0zm-546.34 -348c29.62,8.7 57.52,20.65 86.23,32.94 56.08,24 114.07,48.83 188.39,48.83 74.31,0 132.3,-24.83 188.38,-48.83 31.22,-13.37 61.48,-26.33 94.03,-35.15 -0.73,-1.88 -1.48,-3.75 -2.26,-5.6 -2.99,-7.18 -6.26,-14.23 -9.82,-21.15 -33.12,9.38 -63.53,22.4 -93.39,35.18 -55.84,23.9 -108.58,46.49 -176.93,46.49 -68.36,0 -121.11,-22.59 -176.96,-46.49 -49.85,-21.35 -101.22,-43.34 -164.23,-47.95 21.64,14.73 43.83,28.65 66.57,41.72zm311.37 195.44c57.33,-6.41 105.13,-26.88 151.63,-46.79 37.39,-16.01 73.4,-31.42 113.63,-39.86 0.24,-9.87 -0.04,-19.69 -0.82,-29.44 -45.54,8.88 -85.36,25.93 -124.26,42.59 -48.6,20.8 -94.86,40.61 -151.1,45.4 4.52,8.89 8.19,18.29 10.92,28.1zm6.24 114.95c54.58,-7.15 100.59,-26.85 145.39,-46.03 37.21,-15.93 73.05,-31.27 113.04,-39.74l0 -29.61c-45.64,8.87 -85.53,25.95 -124.49,42.63 -43.45,18.61 -85.03,36.41 -133.54,43.4 -0.01,9.79 -0.14,19.57 -0.4,29.35z"/>
 </g>
</svg>
