<?xml version="1.0" encoding="UTF-8"?>
<!DOCTYPE svg PUBLIC "-//W3C//DTD SVG 1.1//EN" "http://www.w3.org/Graphics/SVG/1.1/DTD/svg11.dtd">
<!-- Creator: CorelDRAW 2018 (64-Bit Evaluation Version) -->
<svg xmlns="http://www.w3.org/2000/svg" xml:space="preserve" width="191.949mm" height="65.5835mm" version="1.1" style="shape-rendering:geometricPrecision; text-rendering:geometricPrecision; image-rendering:optimizeQuality; fill-rule:evenodd; clip-rule:evenodd"
viewBox="0 0 19391.86 6625.64"
 xmlns:xlink="http://www.w3.org/1999/xlink">
 <defs>
  <style type="text/css">
   <![CDATA[
    .fil0 {fill:#001E30;fill-rule:nonzero}
   ]]>
  </style>
 </defs>
 <g id="Layer_x0020_1">
  <metadata id="CorelCorpID_0Corel-Layer"/>
  <path class="fil0" d="M8141.33 3153.75c60.43,67.53 90.66,158.41 90.66,272.66 0,114.27 -31.17,206.1 -93.49,275.51 -62.32,69.4 -144,104.11 -245.05,104.11 -64.21,0 -119.22,-12.04 -165.01,-36.12 -45.81,-24.08 -80.97,-57.6 -105.53,-100.56 -24.55,-42.97 -42.03,-89.24 -52.4,-138.81 -10.4,-49.58 -15.58,-104.59 -15.58,-165.03 0,-187.91 30.21,-328.61 90.64,-422.1 32.11,-49.11 71.3,-84.98 117.57,-107.65 46.27,-22.65 104.81,-36.35 175.63,-41.07l67.99 -4.25c35.88,-1.89 60.9,-5.67 75.06,-11.33 14.17,-5.68 24.08,-14.65 29.75,-26.92l99.15 0c-7.56,41.55 -25.72,70.35 -54.53,86.41 -28.8,16.05 -76.25,26.44 -142.36,31.16l-107.64 7.08c-82.15,5.68 -145.18,35.65 -189.1,89.95 -43.9,54.29 -73.88,137.63 -89.94,249.99l4.25 0c24.55,-49.09 61.14,-88.75 109.77,-118.98 48.62,-30.21 102.23,-45.32 160.77,-45.32 99.15,0 178.94,33.75 239.37,101.27zm-6928.17 411.3c-166.65,-795.2 236.11,-1598.93 1024.02,-2043.53 787.94,-444.64 1809.52,-444.64 2597.48,0 787.89,444.61 1190.7,1248.34 1024.02,2043.53 -68.14,-1055.59 -1087.88,-1881.66 -2322.77,-1881.66 -1234.92,0 -2254.63,826.07 -2322.75,1881.66zm5858.66 -976.43c-44.59,-12.22 -92.06,-20.43 -141.46,-24.53 -106.52,-8.87 -220.71,1.44 -333.43,31.64 -113.22,30.32 -217.32,78.44 -304.75,139.1 -40.59,28.16 -77.52,58.98 -109.99,91.88 44.6,12.22 92.1,20.44 141.48,24.54 106.53,8.85 220.71,-1.45 333.43,-31.65 113.21,-30.32 217.3,-78.44 304.75,-139.11 40.58,-28.17 77.51,-58.97 109.97,-91.87zm-7071.82 0c32.47,32.91 69.39,63.73 109.99,91.88 87.44,60.67 191.52,108.76 304.74,139.1 112.72,30.2 226.92,40.5 333.45,31.65 49.39,-4.1 96.87,-12.3 141.47,-24.53 -32.47,-32.91 -69.4,-63.74 -109.99,-91.89 -87.45,-60.67 -191.54,-108.77 -304.75,-139.1 -112.72,-30.2 -226.91,-40.51 -333.44,-31.64 -49.39,4.1 -96.86,12.3 -141.47,24.53zm947.28 -1641.34c11.74,44.77 28.42,90.07 49.59,135.02 45.29,96.06 111.37,189.68 194.34,272.65 82.95,82.96 176.56,149.03 272.62,194.33 44.97,21.19 90.27,37.86 135.04,49.6 -11.74,-44.77 -28.41,-90.07 -49.59,-135.03 -45.29,-96.06 -111.38,-189.68 -194.33,-272.63 -82.96,-82.96 -176.59,-149.04 -272.65,-194.34 -44.95,-21.19 -90.26,-37.86 -135.02,-49.6zm1641.34 -947.28c-12.22,44.6 -20.45,92.08 -24.55,141.47 -8.86,106.52 1.46,220.71 31.66,333.44 30.33,113.22 78.44,217.31 139.09,304.74 28.16,40.59 58.98,77.53 91.88,110.02 12.23,-44.61 20.44,-92.09 24.54,-141.48 8.86,-106.53 -1.44,-220.71 -31.64,-333.45 -30.34,-113.21 -78.45,-217.32 -139.11,-304.75 -28.17,-40.59 -58.97,-77.52 -91.87,-109.99zm1894.59 0.02c-32.89,32.46 -63.7,69.38 -91.85,109.97 -60.69,87.45 -108.8,191.55 -139.16,304.75 -30.19,112.7 -40.48,226.91 -31.62,333.44 4.1,49.4 12.32,96.88 24.54,141.49 32.92,-32.47 63.74,-69.39 91.9,-109.99 60.68,-87.46 108.76,-191.54 139.1,-304.78 30.19,-112.7 40.49,-226.89 31.63,-333.43 -4.1,-49.38 -12.32,-96.85 -24.54,-141.46zm1641.35 947.27c-44.77,11.74 -90.08,28.42 -135.04,49.61 -96.06,45.28 -189.69,111.37 -272.64,194.32 -82.95,82.95 -149.01,176.57 -194.31,272.65 -21.19,44.94 -37.86,90.24 -49.58,135.01 44.76,-11.74 90.07,-28.42 135.02,-49.6 96.61,-45.57 190.23,-111.49 272.59,-193.86l0 -0.47c82.97,-82.96 149.07,-176.59 194.36,-272.65 21.2,-44.95 37.87,-90.25 49.6,-135.01zm-1700.41 5678.35l-713.03 0 0 -617.06c0.06,-1.28 0.06,-2.62 0,-4.03 -8.4,-122.74 12.29,-243.95 58.33,-354.57 46.04,-110.67 117.28,-210.76 210.15,-291.32 73.14,-63.48 156.34,-112.03 244.98,-144.41 89.62,-32.68 184.69,-48.98 280.67,-47.62 99.61,1.41 192.1,-7.04 282.21,-26.44 90.17,-19.35 178.08,-49.64 268.37,-91.95 10.84,-5.08 21.68,-10.21 32.45,-15.5 1.16,-0.48 2.27,-1.03 3.37,-1.65 35.61,-17.57 70.63,-36.07 104.93,-55.51 15.16,-8.57 30.17,-17.32 45.05,-26.27 0.61,-0.3 1.16,-0.68 1.71,-1.03 29.95,-18.01 59.25,-36.68 87.91,-56.03 77.86,-52.5 160.99,-82.89 238.56,-79.68 67.32,2.69 131.29,31.15 184.74,93.16 1.78,2.07 2.88,4.15 3.43,6.23 0.48,2.15 0.41,4.61 -0.25,7.24 -0.62,2.63 -1.71,4.82 -3.13,6.42 -1.45,1.73 -3.49,3.12 -5.99,4.09 -116.48,46.28 -226.55,106.34 -327.75,178.63 -101.24,72.36 -193.81,156.96 -275.34,252.21 -10.78,12.61 -9.3,31.53 3.24,42.36 12.6,10.78 31.58,9.3 42.36,-3.3 78.42,-91.57 167.29,-172.88 264.58,-242.35 97.45,-69.67 203.22,-127.4 315.07,-171.84 11.51,-4.53 21.31,-11.44 29,-20.26 7.78,-9.01 13.36,-19.66 16.3,-31.65 2.93,-11.94 2.93,-23.93 0.18,-35.44 -2.2,-9.38 -6.3,-18.19 -12.06,-26.2 74.56,-65.7 144.66,-135.79 209.91,-209.98 72.43,-82.4 139.02,-169.87 199.25,-261.81 32.39,-31.4 71.74,-52.46 113.5,-62.58 43.28,-10.47 89.25,-9.11 132.65,4.85 2.33,0.74 4.22,1.72 5.64,2.99 1.39,1.29 2.62,3 3.62,5.21 0.97,2.19 1.46,4.28 1.46,6.11 0,1.9 -0.5,3.98 -1.55,6.31 -165.88,374.63 -408.48,703.35 -706.61,968.67 -299.39,266.41 -654.64,468.79 -1044.34,589.51 -86.68,26.86 -158.85,77.81 -210.33,144.78 -51.54,66.96 -82.34,149.84 -86.01,240.5 -3.86,93.37 -3.61,186.77 0.69,280 0.59,13.1 1.27,26.15 2.07,39.18zm1064.91 -1866.45c8.01,-89.01 11.81,-178.45 11.45,-267.88 0,-0.24 0,-0.42 0,-0.61 -0.08,-11.95 -0.2,-23.82 -0.38,-35.7 -1.9,-112.76 -10.33,-225.27 -25.46,-336.87 -5.82,-56 -0.24,-111.83 15.61,-164.48 15.91,-53.07 42.3,-102.77 77.74,-145.92 1.84,-2.21 4.04,-3.8 6.37,-4.68 2.32,-0.84 5.08,-1.02 7.95,-0.54 3,0.54 5.45,1.6 7.29,3.11 1.9,1.67 3.36,3.87 4.33,6.62 60.36,169.4 101.99,344.21 124.45,521.37 19.77,156.1 24.3,313.91 14.52,472.16 -49.58,-34.17 -104.14,-50.88 -160.76,-53.2 -27.42,-1.11 -55.22,1.22 -83.11,6.61zm-230.3 108.78c-0.43,-97.89 -18.38,-194.24 -52.23,-284.66 -40.38,-107.98 -103.39,-207.41 -186.26,-291.08l-0.07 0.05 -0.62 -0.67c-41.56,-39.24 -73.89,-86.01 -95.97,-136.94 -22.29,-51.41 -34.1,-107.13 -34.36,-163.8 0,-2.95 0.75,-5.7 2.15,-8.02 1.34,-2.21 3.36,-4.09 6.01,-5.46 2.74,-1.4 5.57,-2.01 8.19,-1.83 2.58,0.17 5.2,1.16 7.66,2.86 102.7,73.17 199.13,154.52 288.26,243.23 86.87,86.44 166.87,179.78 238.99,279.21 0.06,91.69 -4.34,183.56 -13.3,275.21 -44.08,15.49 -87.72,38.08 -129.59,66.35 -12.91,8.71 -25.89,17.2 -38.86,25.54zm-163.87 94.33c-29.81,-88.02 -76.46,-168.41 -136.52,-237.16 -67.34,-77.06 -151.39,-139.5 -247.38,-181.56 -37.63,-20.01 -70.76,-46.28 -98.06,-77.19 -27.8,-31.4 -49.83,-67.52 -64.89,-106.81 -1.1,-2.82 -1.41,-5.69 -0.93,-8.31 0.43,-2.39 1.73,-4.84 3.8,-7.16l-0.05 -0.07 0.05 -0.06c1.97,-2.2 4.28,-3.73 6.8,-4.53 2.39,-0.75 5.27,-0.75 8.32,0 113.55,28.76 222.77,71.45 325.18,126.72 100.03,53.93 193.56,119.87 278.34,196.5 22.24,78.12 32.03,160.01 28.35,242.85 -10.28,6.05 -20.63,12.06 -30.96,17.94 -23.83,13.46 -47.82,26.43 -72.05,38.86zm-3516.2 -253.22c-5.19,-72.43 -7.62,-145.07 -7.35,-217.77 0,-0.24 0,-0.42 0,-0.61l0.11 -15.65 0 -0.56 0.06 -5.02 0 -0.56 0.21 -13.92c0.46,-28.19 1.33,-56.36 2.63,-84.51l0.01 0c0.4,-8.8 0.84,-17.6 1.32,-26.39l0.01 0c0.59,-10.55 1.21,-21.08 1.91,-31.63l0.01 0 0.34 -5.27 0.01 0c0.72,-10.54 1.49,-21.07 2.31,-31.6l0.01 0 1.28 -15.79 0.01 0 0.9 -10.52 0.01 0 0.94 -10.52 0.01 0 0.98 -10.52 0.01 0 0.5 -5.25 0.01 0 1.04 -10.51 0.01 0 0.53 -5.25 0.01 0 0.54 -5.25 0.01 0 0.55 -5.25 0.01 0 0.56 -5.24 0.01 0 0.58 -5.25 0.59 -5.24 0.6 -5.24 0.61 -5.24 0.62 -5.24 0.62 -5.24 0.01 0 0.63 -5.24 0.01 0 0.64 -5.24 0.65 -5.23 0.01 0 0.66 -5.24 0.01 0 0.67 -5.23 0.01 0 1.36 -10.47 0.01 0 0.71 -5.23c0.45,-4.37 0.83,-8.75 1.14,-13.12l0.01 0 0.17 -2.62 0.01 0 0.3 -5.24 0.01 0 0.12 -2.63 0.01 0 0.29 -7.85 0.01 0 0.05 -2.62 0.01 0 0.04 -2.62 0.01 0 0.04 -7.84 0 -2.61 -0.01 0 -0.02 -2.61 -0.01 0 -0.04 -2.62 -0.01 0 -0.05 -2.6 -0.01 0 -0.07 -2.61 -0.01 0 -0.09 -2.61 -0.01 0 -0.1 -2.6 -0.01 0 -0.12 -2.6 -0.01 0 -0.13 -2.6 -0.01 0 -0.15 -2.6 -0.01 0 -0.16 -2.6 -0.01 0 -0.18 -2.59 -0.01 0 -0.2 -2.59 -0.01 0 -0.21 -2.59 -0.01 0 -0.23 -2.59 -0.01 0 -0.24 -2.58 -0.01 0 -0.26 -2.58 -0.01 0 -0.28 -2.58 -0.3 -2.58 -0.32 -2.57 -0.33 -2.57 -0.34 -2.57 -0.01 0 -0.36 -2.57 -0.38 -2.56 -0.39 -2.56 -0.41 -2.56 -0.42 -2.55 -0.44 -2.55 -0.45 -2.54 -0.01 0 -0.46 -2.55 -0.01 0 -0.48 -2.54 -0.01 0 -0.5 -2.53 -0.01 0c-0.52,-2.53 -1.03,-5.06 -1.6,-7.58l-0.01 0 -1.14 -5.03 -0.01 0c-1.96,-8.36 -4.16,-16.67 -6.64,-24.9 -3.74,-12.44 -8.05,-24.69 -12.92,-36.72l-0.01 0 -0.97 -2.39 -0.01 0c-0.99,-2.39 -1.98,-4.79 -3.02,-7.17l-0.01 0 -2.08 -4.75 -0.01 0 -1.06 -2.36 -0.01 0 -1.07 -2.36 -0.01 0c-1.45,-3.14 -2.93,-6.26 -4.47,-9.37l-0.01 0c-2.29,-4.66 -4.68,-9.26 -7.14,-13.84l-0.01 0 -1.23 -2.28 -0.01 0 -1.24 -2.27 -0.01 0 -1.26 -2.26 -0.01 0 -1.27 -2.26 -0.01 0c-2.58,-4.52 -5.23,-8.97 -7.99,-13.39l-0.01 0 -1.37 -2.2 -0.01 0 -1.38 -2.2 -0.01 0 -1.4 -2.18 -0.01 0 -1.41 -2.18 -0.01 0 -1.42 -2.17 -0.01 0 -1.44 -2.16 -0.01 0 -1.45 -2.15 -0.01 0 -1.46 -2.15 -0.01 0 -1.49 -2.13 -0.01 0 -1.51 -2.13 -1.52 -2.12 -0.01 0 -1.53 -2.11 -0.01 0 -1.54 -2.1 -0.01 0 -1.56 -2.09 -1.58 -2.08 -1.59 -2.07 -1.61 -2.07 -1.62 -2.05 -1.63 -2.05 -1.64 -2.03 -0.01 0 -1.65 -2.03 -0.01 0 -0.08 -0.1 -0.01 0 -0.07 -0.1 -0.01 0 -0.08 -0.1 -0.01 0 -0.08 -0.1 -0.08 -0.1 -0.01 0 -0.08 -0.1 -0.01 0 -0.08 -0.1 -0.01 0 -0.08 -0.09 -0.09 -0.1 -0.09 -0.09 -0.09 -0.09 -0.09 -0.1 -0.09 -0.09 -0.09 -0.09 -0.1 -0.09 -0.09 -0.08 -0.09 -0.09 -0.09 -0.09 -0.01 0 -0.09 -0.08 -0.09 -0.09 -0.09 -0.08 -0.01 0 -0.09 -0.09 -0.01 0 -0.08 -0.08 -0.01 0 -0.09 -0.08 -0.01 0 -0.09 -0.08 -0.09 -0.08 -0.01 0 -0.09 -0.07 -0.2 -0.16 -0.09 -0.07 -0.01 0 -0.09 -0.08 -0.01 0 -0.09 -0.07 -0.01 0c-1.04,-0.76 -2.16,-1.32 -3.33,-1.84l-0.71 -0.22 -0.08 -0.03 -0.03 0 -0.08 -0.03 -0.03 0 -0.08 -0.03 -0.03 0 -0.09 -0.03 -0.03 0 -0.08 -0.03 -0.03 0 -0.09 -0.03 -0.03 0 -0.08 -0.03 -0.03 0 -0.09 -0.02 -0.03 0 -0.08 -0.03 -0.03 0 -0.09 -0.02 -0.03 0 -0.09 -0.02 -0.03 0 -0.09 -0.03 -0.03 0 -0.09 -0.02 -0.02 0 -0.09 -0.02 -0.03 0 -0.09 -0.02 -0.03 0 -0.09 -0.02 -0.03 0 -0.1 -0.01 -0.02 0 -0.1 -0.02 -0.02 0 -0.1 -0.01 -0.02 0 -0.1 -0.02 -0.02 0 -0.1 -0.01 -0.03 0 -0.09 -0.02 -0.03 0 -0.1 -0.01 -0.02 0 -0.1 -0.01 -0.02 0 -0.11 -0.01 -0.02 0 -0.1 -0.01 -0.02 0 -0.1 0 -0.03 0 -0.1 -0.01 -0.02 0 -0.11 -0.01 -0.02 0 -0.1 0 -0.02 0 -0.11 -0.01 -0.02 0 -0.11 0 -0.01 0 -0.11 0 -0.02 0 -0.11 0 -0.02 0 -0.11 0 -0.02 0 -0.11 0 -0.01 0 -0.12 0 -0.01 0 -0.11 0 -0.02 0 -0.11 0.01 -0.02 0 -0.11 0 -0.02 0 -0.11 0.01 -0.02 0 -0.11 0 -0.02 0 -0.11 0.01 -0.02 0 -0.12 0.01 -0.01 0 -0.12 0.01 -0.01 0 -0.12 0.01 -0.01 0 -0.12 0.01 -0.01 0 -0.12 0.01 -0.01 0 -0.13 0.02 -0.13 0.01 -0.13 0.02 -0.13 0.01 -0.14 0.02 -0.13 0.02 -0.13 0.02 -0.01 0 -0.12 0.02 -0.01 0 -0.13 0.02 -0.01 0 -0.12 0.02 -0.01 0 -0.13 0.03 -0.01 0 -0.13 0.02 -0.13 0.03 -0.01 0 -0.13 0.03 -0.14 0.02 -0.13 0.03 -0.13 0.03 -0.14 0.03 -0.13 0.03 -0.13 0.04 -0.13 0.03 -0.12 0.03 -0.01 0 -0.12 0.04 -0.01 0 -0.12 0.03 -0.01 0 -0.12 0.04 -0.01 0 -0.11 0.03 -0.01 0 -0.12 0.04 -0.01 0 -0.11 0.04 -0.01 0 -0.11 0.04 -0.02 0 -0.11 0.04 -0.01 0 -0.11 0.04 -0.01 0 -0.11 0.04 -0.02 0 -0.1 0.04 -0.02 0 -0.1 0.04 -0.02 0 -0.1 0.04 -0.02 0 -0.1 0.05 -0.01 0 -0.1 0.04 -0.02 0 -0.1 0.05 -0.02 0 -0.09 0.04 -0.02 0 -0.1 0.05 -0.02 0 -0.09 0.05 -0.02 0 -0.1 0.05 -0.02 0 -0.09 0.05 -0.02 0 -0.09 0.04 -0.02 0 -0.09 0.05 -0.02 0 -0.09 0.06 -0.02 0 -0.09 0.05 -0.02 0 -0.09 0.05 -0.02 0c-0.91,0.4 -1.76,0.88 -2.55,1.62 -0.89,0.78 -1.68,1.68 -2.36,2.7l-0.01 0 -0.26 0.41 -0.01 0 -0.12 0.21 -0.01 0 -0.12 0.21 -0.01 0 -0.05 0.11 -0.01 0 -0.12 0.22 -0.01 0 -0.05 0.11 -0.01 0 -0.05 0.11 -0.01 0 -0.05 0.11 -0.01 0 -0.05 0.11 -0.01 0 -0.05 0.11 -0.01 0 -0.04 0.12 -0.01 0 -0.05 0.11 -0.01 0 -0.05 0.12 -0.01 0 -0.04 0.11 -0.01 0 -0.05 0.12 -0.05 0.12 -0.01 0 -0.04 0.12 -0.06 0.11 -0.06 0.12 -0.04 0.13 -0.01 0 -0.04 0.12 -0.01 0 -0.04 0.12 -0.01 0 -0.04 0.12 -0.01 0 -0.04 0.13 -0.04 0.12 -0.01 0 -0.04 0.13 -0.01 0 -0.04 0.12 -0.04 0.13 -0.01 0 -2.81 7.94 -0.01 0 -2.78 7.96 -0.01 0 -2.75 7.95 -0.01 0 -2.73 7.97 -0.01 0 -2.7 7.98 -2.68 7.98 -0.01 0 -2.64 7.99 -0.01 0 -2.62 7.99 -0.01 0 -2.59 8.01 -0.01 0 -2.56 8.01 -0.01 0 -2.54 8.02 -2.52 8.02 -2.49 8.04 -2.45 8.04 -2.43 8.04 -2.4 8.06 -2.37 8.06 -2.34 8.06 -2.32 8.08 -2.29 8.08 -2.26 8.08 -2.23 8.09 -2.21 8.1 -2.18 8.11 -2.15 8.11 -2.13 8.12 -2.1 8.12 -2.07 8.13 -2.04 8.14 -2.01 8.14 -0.01 0 -1.98 8.14 -1.96 8.16 -0.01 0 -1.92 8.15 -0.01 0 -1.9 8.17 -1.88 8.17 -1.85 8.17 -1.82 8.18 -0.01 0 -1.79 8.19 -1.76 8.19 -0.01 0 -1.73 8.19 -0.01 0 -1.71 8.21 -1.68 8.2 -0.01 0 -1.65 8.21 -0.01 0 -1.62 8.22 -0.01 0 -1.59 8.22 -0.01 0 -1.56 8.22 -0.01 0 -1.54 8.23 -0.01 0 -1.51 8.24 -0.01 0 -1.47 8.24 -0.01 0 -1.45 8.24 -0.01 0 -1.41 8.25 -0.01 0 -1.39 8.25 -0.01 0 -1.36 8.26 -0.01 0 -1.34 8.26 -0.01 0 -1.3 8.26 -0.01 0 -1.28 8.27 -0.01 0 -1.25 8.27 -0.01 0 -1.23 8.28 -0.01 0 -1.19 8.28 -0.01 0 -1.17 8.29 -0.01 0 -1.14 8.28 -0.01 0 -1.11 8.3 -0.01 0 -1.08 8.29 -0.01 0 -1.06 8.3 -0.01 0 -0.91 7.31 -0.01 0 -0.88 7.32 -0.01 0 -0.86 7.32 -0.01 0 -0.84 7.32 -0.01 0 -0.82 7.32 -0.01 0 -0.8 7.33 -0.01 0 -0.77 7.33 -0.01 0 -0.75 7.33 -0.01 0 -0.73 7.33 -0.01 0 -0.71 7.34 -0.01 0 -0.69 7.33 -0.01 0 -0.66 7.34 -0.01 0 -0.65 7.34 -0.01 0 -0.62 7.35 -0.01 0 -0.6 7.34 -0.01 0 -1.13 14.71 -0.01 0c-0.92,12.26 -1.73,24.53 -2.47,36.8l-0.01 0 -0.42 7.36 -0.01 0 -0.39 7.36 -0.01 0c-0.54,9.83 -0.98,19.66 -1.4,29.5l-0.01 0c-0.83,19.67 -1.41,39.35 -1.78,59.06l-0.01 0c-0.14,7.38 -0.22,14.77 -0.3,22.17l-0.01 0 -0.05 7.4 -0.01 0 -0.03 7.4 -0.01 0 -0.01 7.4 0.02 14.8 0.01 0 0.1 14.8 0.01 0 0.08 7.41 0.01 0 0.1 7.4 0.01 0 0.12 7.41 0.01 0 0.14 7.41 0.01 0 0.16 7.42 0.01 0 0.18 7.41 0.01 0 0.21 7.41 0.01 0 0.22 7.42 0.01 0 0.25 7.41 0.01 0 0.27 7.42 0.01 0 0.29 7.42 0.31 7.41 0.01 0 0.33 7.42 0.01 0 0.36 7.42 0.38 7.42 0.4 7.43 0.43 7.42 0.44 7.42 2.32 -1.59 2.34 -1.57 2.33 -1.54 2.35 -1.52 2.35 -1.49 2.36 -1.46 2.37 -1.43 2.37 -1.41 2.38 -1.38 2.39 -1.36 2.39 -1.33 2.4 -1.31 2.4 -1.29 2.41 -1.26 2.42 -1.23 2.43 -1.21 2.43 -1.19 2.43 -1.16 2.45 -1.14 2.44 -1.12 0.01 0 2.45 -1.09 2.47 -1.06 2.48 -1.05 2.48 -1.02 2.49 -0.99 2.49 -0.98 2.5 -0.95 2.5 -0.92 2.51 -0.9 2.51 -0.88 0.01 0 2.51 -0.86 0.01 0 2.52 -0.83 2.53 -0.81 2.54 -0.79 2.54 -0.76 2.54 -0.74 2.55 -0.72 2.56 -0.69 2.56 -0.67 2.56 -0.65 2.57 -0.63 2.57 -0.61 2.58 -0.58 2.58 -0.56 2.59 -0.54 2.59 -0.51 2.59 -0.5 0.01 0 2.59 -0.46 0.01 0 2.59 -0.44 0.01 0 2.6 -0.41 0.01 0 2.6 -0.4 0.01 0 2.61 -0.37 2.62 -0.36 2.62 -0.33 0.01 0 2.61 -0.31 0.01 0 2.62 -0.28 0.01 0 2.63 -0.27 0.01 0 2.62 -0.25 0.01 0 2.63 -0.22 0.02 0 2.63 -0.2 0.01 0 2.63 -0.18 0.02 0 2.63 -0.16 0.02 0 2.63 -0.14 0.02 0 2.64 -0.12 0.02 0 1.26 -0.05 0.02 0 1.27 -0.04 0.01 0 1.27 -0.04 0.02 0 1.26 -0.04 0.02 0 1.27 -0.03 0.02 0 1.26 -0.02 0.02 0 1.27 -0.02 0.02 0 1.26 -0.01 0.02 0 1.27 -0.01 0.02 0 1.27 -0.01 0.01 0 1.28 0 0.01 0 1.27 0.01 0.02 0 1.27 0.01 0.02 0 1.27 0.01 0.02 0 1.27 0.02 0.01 0 1.28 0.03 0.01 0 1.28 0.03 0.01 0 1.28 0.03 0.01 0 1.28 0.04 0.02 0 1.28 0.05 0.01 0 1.28 0.04 0.01 0 1.28 0.06 0.01 0 1.28 0.06 0.01 0 1.29 0.06 0.01 0 1.28 0.07 0.01 0 1.29 0.07 1.29 0.08 0.01 0 1.29 0.08 1.29 0.09 0.01 0 1.29 0.09 1.29 0.1 0.01 0 1.29 0.1 1.3 0.1 1.29 0.12 0.01 0 1.29 0.11 1.3 0.12 1.3 0.13 1.29 0.13 0.01 0 1.29 0.13 1.3 0.14 1.3 0.14 1.3 0.15 1.3 0.15 1.3 0.16 1.3 0.16 1.3 0.17 1.3 0.17 1.3 0.17 1.3 0.19 0.01 0 1.29 0.18 0.01 0 1.29 0.19 0.01 0 1.3 0.19 1.3 0.2 1.3 0.2 0.01 0 1.29 0.21 0.01 0 1.29 0.21 0.01 0 1.3 0.22 1.3 0.22 0.01 0 1.29 0.23 0.01 0 1.3 0.23 1.3 0.23 0.01 0 1.29 0.24 0.01 0 1.3 0.24 0.01 0 1.29 0.25 0.01 0 -0.01 0 -0.36 -4.17 -0.01 0 -0.35 -4.17 -0.01 0 -0.35 -4.17 -0.35 -4.18 -0.34 -4.17 -0.34 -4.17 -0.33 -4.18 -0.32 -4.17 -0.01 0 -0.31 -4.18 -0.01 0 -0.3 -4.17 -0.01 0 -0.3 -4.18 -0.01 0 -0.29 -4.17 -0.01 0zm1782.01 1916.56l0.01 0 0 -617.06c-0.05,-1.28 -0.05,-2.62 0,-4.03l0.36 -5.75 0.01 0 0.31 -5.75 0.01 0 0.28 -5.75 0.01 0 0.23 -5.75 0.01 0 0.19 -5.74 0.01 0 0.15 -5.74 0.01 0 0.11 -5.74 0.01 0 0.06 -5.73 0.01 0 0.03 -5.73 0 -5.72 -0.01 0 -0.04 -5.72 -0.01 0 -0.08 -5.72 -0.01 0 -0.12 -5.71 -0.01 0 -0.16 -5.71 -0.01 0 -0.21 -5.7 -0.25 -5.69 -0.01 0 -0.29 -5.69 -0.33 -5.69 -0.01 0 -0.37 -5.68 -0.42 -5.67 -0.45 -5.67 -0.01 0 -0.5 -5.66 -0.01 0 -0.54 -5.65 -0.59 -5.65 -0.63 -5.64 -0.66 -5.63 -0.01 0 -0.7 -5.62 -0.01 0 -0.74 -5.62 -0.01 0 -0.78 -5.61 -0.83 -5.6 -0.86 -5.59 -0.01 0 -0.9 -5.58 -0.01 0 -0.94 -5.58 -0.98 -5.56 -0.01 0 -1.02 -5.56 -1.06 -5.54 -0.01 0 -1.09 -5.54 -0.01 0 -1.14 -5.53 -1.18 -5.52 -1.22 -5.5 -1.26 -5.5 -1.3 -5.49 -1.33 -5.47 -0.01 0 -1.37 -5.47 -1.41 -5.45 -1.45 -5.44 -0.01 0 -1.49 -5.43 -0.01 0 -1.53 -5.41 -1.58 -5.4 -1.61 -5.38 -0.01 0 -1.64 -5.37 -0.01 0 -1.68 -5.36 -0.01 0 -1.72 -5.35 -0.01 0 -1.76 -5.33 -1.8 -5.32 -1.84 -5.3 -1.88 -5.3 -1.92 -5.27 -1.95 -5.27 -1.99 -5.25 -2.03 -5.23 -2.06 -5.22 -2.1 -5.21 -2.14 -5.19 -2.17 -5.18 -2.21 -5.16 -0.01 0 -2.24 -5.15 -2.28 -5.13 -0.01 0 -2.31 -5.11 -0.01 0 -2.35 -5.1 -2.39 -5.08 -2.43 -5.06 -2.47 -5.05 -0.01 0 -2.5 -5.03 -2.55 -5.01 -2.58 -5 -2.61 -4.98 -0.01 0 -2.65 -4.96 -2.68 -4.94 -0.01 0 -2.72 -4.92 -2.75 -4.9 -0.01 0 -2.79 -4.89 -2.83 -4.87 -2.86 -4.84 -2.9 -4.83 -2.93 -4.81 -2.97 -4.79 -3 -4.77 -0.01 0 -3.03 -4.74 -3.07 -4.73 -3.11 -4.71 -3.14 -4.69 -3.17 -4.66 -0.01 0 -3.2 -4.64 -3.24 -4.63 -0.01 0 -3.27 -4.6 -0.01 0 -3.3 -4.58 -0.01 0 -3.34 -4.56 -3.37 -4.53 -0.01 0 -3.41 -4.51 -3.44 -4.49 -0.01 0 -3.48 -4.47 -0.01 0 -3.52 -4.44 -3.55 -4.41 -0.01 0 -3.58 -4.39 -0.01 0 -3.62 -4.37 -3.65 -4.34 -0.01 0 -3.68 -4.31 -0.01 0 -3.71 -4.29 -0.01 0 -3.75 -4.27 -3.79 -4.24 -3.82 -4.22 -3.85 -4.19 -0.01 0 -3.88 -4.17 -3.91 -4.14 -0.01 0 -3.94 -4.12 -0.01 0 -3.98 -4.09 -4.01 -4.06 -0.01 0 -4.04 -4.04 -0.01 0 -4.07 -4.01 -0.01 0 -4.1 -3.98 -0.01 0 -4.13 -3.96 -0.01 0 -4.17 -3.93 -0.01 0 -4.2 -3.9 -4.24 -3.88 -4.27 -3.85 -4.3 -3.82 -0.01 0 -4.32 -3.79 -0.01 0 -3.42 -2.96 -0.01 0 -3.44 -2.95 -0.01 0 -3.46 -2.92 -0.01 0 -3.47 -2.9 -0.01 0 -3.49 -2.88 -0.01 0 -3.5 -2.85 -0.01 0 -3.52 -2.84 -0.01 0 -3.53 -2.81 -0.01 0 -3.54 -2.79 -0.01 0 -3.56 -2.77 -0.01 0 -3.57 -2.74 -0.01 0 -3.59 -2.73 -3.61 -2.7 -3.62 -2.68 -3.63 -2.66 -0.01 0 -3.64 -2.64 -3.66 -2.61 -3.67 -2.59 -0.01 0 -3.68 -2.57 -3.7 -2.55 -3.71 -2.53 -3.72 -2.5 -3.74 -2.48 -3.74 -2.45 -0.01 0 -3.75 -2.43 -0.01 0 -3.77 -2.4 -3.78 -2.38 -3.79 -2.36 -0.01 0 -3.8 -2.34 -3.82 -2.31 -3.83 -2.3 -3.84 -2.27 -3.85 -2.24 -3.87 -2.23 -3.87 -2.2 -3.89 -2.18 -3.89 -2.15 -3.91 -2.14 -3.92 -2.11 -3.92 -2.09 -0.01 0 -3.93 -2.06 -0.01 0 -3.94 -2.05 -3.96 -2.02 -3.97 -1.99 -3.98 -1.98 -3.99 -1.95 -3.99 -1.93 -0.01 0 -4 -1.9 -0.01 0 -4.01 -1.88 -4.03 -1.86 -4.03 -1.84 -0.01 0 -4.04 -1.81 -4.05 -1.79 -0.01 0 -4.06 -1.77 -4.07 -1.74 -0.01 0 -4.07 -1.72 -0.01 0 -4.08 -1.7 -0.01 0 -4.09 -1.68 -0.01 0 -4.1 -1.65 -0.01 0 -4.1 -1.62 -0.01 0 -4.12 -1.61 -0.01 0 -4.12 -1.58 -0.01 0 -4.13 -1.56 -0.01 0 -4.14 -1.53 -0.01 0 -4.19 -1.52 -0.01 0 -4.2 -1.51 -0.01 0 -4.21 -1.46 -0.01 0 -4.21 -1.45 -0.02 0 -4.21 -1.41 -0.02 0 -4.22 -1.4 -0.02 0 -4.23 -1.37 -0.02 0 -4.23 -1.35 -0.02 0 -4.24 -1.32 -0.02 0 -4.25 -1.3 -0.02 0 -4.26 -1.28 -0.02 0 -4.26 -1.25 -0.02 0 -4.27 -1.23 -0.02 0 -4.27 -1.2 -0.02 0 -4.29 -1.18 -0.01 0 -4.29 -1.15 -0.02 0 -4.3 -1.13 -0.02 0 -4.3 -1.11 -0.02 0 -4.31 -1.08 -0.02 0 -4.31 -1.06 -0.02 0 -4.32 -1.03 -0.02 0 -4.32 -1.01 -0.02 0 -4.34 -0.98 -0.01 0 -4.34 -0.97 -0.02 0 -4.34 -0.93 -0.02 0 -4.35 -0.91 -0.01 0 -4.36 -0.89 -0.02 0 -4.36 -0.86 -0.01 0 -4.37 -0.84 -0.01 0 -4.38 -0.81 -0.01 0 -4.38 -0.79 -0.01 0 -4.39 -0.76 -0.01 0 -4.39 -0.74 -0.01 0 -4.4 -0.72 -4.41 -0.69 -4.41 -0.66 -0.01 0 -4.41 -0.64 -0.01 0 -4.41 -0.62 -0.01 0 -4.42 -0.59 -4.44 -0.56 -4.45 -0.54 -4.44 -0.52 -0.01 0 -4.45 -0.48 -4.45 -0.46 -4.46 -0.43 -4.46 -0.4 -4.47 -0.38 -4.46 -0.36 -0.01 0 -4.46 -0.33 -0.01 0 -4.47 -0.3 -4.47 -0.28 -0.01 0 -4.47 -0.26 -0.01 0 -4.47 -0.23 -0.01 0 -4.48 -0.2 -4.48 -0.18 -0.01 0 -4.48 -0.16 -0.01 0 -4.48 -0.12 -0.01 0 -4.49 -0.11 -4.49 -0.07 -4.5 -0.06 -4.5 -0.02 -4.5 0 -4.5 0.02 -4.5 0.05 -4.67 0.06 -4.65 0.04 -4.65 0.03 -4.63 0.02 -0.01 0 -4.62 0 -4.61 -0.01 -0.01 0 -4.6 -0.03 -0.01 0 -4.59 -0.05 -4.59 -0.05 -4.57 -0.07 -0.01 0 -4.56 -0.09 -0.01 0 -4.55 -0.1 -0.01 0 -4.54 -0.12 -0.01 0 -4.54 -0.12 -4.53 -0.15 -0.01 0 -4.51 -0.16 -0.01 0 -4.51 -0.17 -0.01 0 -4.5 -0.19 -0.01 0 -4.49 -0.2 -4.49 -0.22 -0.01 0 -4.47 -0.24 -0.01 0 -4.47 -0.24 -4.46 -0.27 -0.01 0 -4.45 -0.27 -0.01 0 -4.44 -0.29 -0.01 0 -4.44 -0.31 -4.42 -0.32 -0.01 0 -4.41 -0.34 -0.01 0 -4.4 -0.35 -0.01 0 -4.4 -0.37 -4.39 -0.38 -0.01 0 -4.38 -0.4 -0.01 0 -4.38 -0.41 -4.37 -0.43 -0.01 0 -4.36 -0.44 -0.01 0 -4.35 -0.46 -0.01 0 -4.35 -0.47 -0.01 0 -4.34 -0.5 -0.01 0 -4.33 -0.51 -0.01 0 -4.33 -0.53 -0.01 0 -4.32 -0.55 -0.01 0 -4.32 -0.56 -0.01 0 -4.31 -0.57 -0.01 0 -4.3 -0.59 -0.01 0 -4.3 -0.61 -0.01 0 -4.3 -0.62 -4.29 -0.63 -0.01 0 -4.28 -0.65 -0.01 0 -4.28 -0.67 -0.01 0 -4.27 -0.68 -0.01 0 -4.27 -0.7 -0.01 0 -4.26 -0.72 -0.01 0 -4.26 -0.72 -0.01 0 -4.25 -0.75 -0.01 0 -4.25 -0.76 -0.01 0 -4.24 -0.78 -0.01 0 -4.24 -0.79 -0.01 0 -4.24 -0.8 -0.01 0 -4.23 -0.83 -0.01 0 -4.22 -0.84 -0.02 0 -4.22 -0.85 -0.01 0 -4.21 -0.87 -0.02 0 -4.21 -0.89 -0.02 0 -4.2 -0.9 -0.02 0 -4.2 -0.92 -0.02 0 -4.2 -0.93 -0.02 0 -4.2 -0.94 -0.02 0 -4.2 -0.97 -0.01 0 -4.2 -0.98 -0.01 0 -4.2 -0.99 -0.01 0 -4.19 -1.01 -0.01 0 -4.2 -1.03 -4.2 -1.04 -4.2 -1.06 -4.19 -1.08 -0.01 0 -4.19 -1.09 -4.19 -1.11 -4.19 -1.12 -4.19 -1.14 -4.18 -1.16 -4.18 -1.17 -0.01 0 -4.18 -1.19 -4.18 -1.21 -4.18 -1.22 -4.18 -1.24 -4.17 -1.25 -0.01 0 -4.17 -1.27 -0.01 0 -4.17 -1.29 -4.17 -1.31 -0.01 0 -4.17 -1.32 -4.17 -1.33 -0.01 0 -4.16 -1.36 -0.01 0 -4.17 -1.37 -4.17 -1.38 -0.01 0 -4.16 -1.41 -0.01 0 -4.17 -1.42 -4.17 -1.43 -4.17 -1.46 -0.01 0 -4.16 -1.47 -0.01 0 -4.17 -1.49 -4.17 -1.52 -0.01 0 -4.17 -1.53 -4.17 -1.54 -0.01 0 -4.17 -1.57 -4.18 -1.58 -4.17 -1.59 -0.01 0 -4.17 -1.62 -0.01 0 -4.17 -1.63 -0.01 0 -4.18 -1.65 -4.18 -1.66 -4.18 -1.68 -4.19 -1.7 -4.19 -1.72 -4.19 -1.73 -4.19 -1.75 -4.19 -1.77 -0.01 0 -4.19 -1.78 -4.19 -1.81 -0.01 0 -4.2 -1.81 -4.2 -1.84 -0.01 0 -4.19 -1.85 -0.01 0 -4.2 -1.87 -0.01 0 -4.2 -1.89 -0.01 0 -4.2 -1.91 -0.02 0 -4.2 -1.92 -0.02 0 -4.2 -1.94 -0.02 0 -4.2 -1.96 -0.02 0 -4.21 -1.97 -0.02 0 -0.48 -0.24 -0.02 0 -0.5 -0.23 -0.02 0 -0.48 -0.24 -0.02 0 -0.5 -0.23 -0.01 0 -0.5 -0.24 -0.01 0 -0.5 -0.24 -0.02 0 -0.5 -0.23 -0.01 0 -0.5 -0.24 -0.01 0 -0.51 -0.24 -0.01 0 -0.5 -0.23 -0.01 0 -0.5 -0.24 -0.01 0 -0.51 -0.24 -0.01 0 -0.5 -0.23 -0.01 0 -0.5 -0.24 -0.01 0 -0.51 -0.24 -0.51 -0.23 -0.01 0 -0.5 -0.24 -0.01 0 -0.51 -0.24 -0.51 -0.24 -0.51 -0.23 -0.01 0 -0.51 -0.24 -0.51 -0.24 -0.51 -0.24 -0.01 0 -0.5 -0.24 -0.01 0 -0.51 -0.23 -0.51 -0.24 -0.51 -0.24 -0.51 -0.24 -0.01 0 -0.51 -0.24 -0.51 -0.24 -0.51 -0.24 -0.51 -0.23 -0.01 0 -0.5 -0.24 -0.01 0 -0.51 -0.24 -0.51 -0.24 -0.51 -0.24 -0.51 -0.24 -0.01 0 -0.5 -0.24 -0.01 0 -0.5 -0.24 -0.01 0 -0.51 -0.24 -0.51 -0.24 -0.51 -0.25 -0.51 -0.24 -0.01 0 -0.5 -0.24 -0.01 0 -0.5 -0.24 -0.01 0 -0.5 -0.24 -0.01 0 -0.5 -0.24 -0.01 0 -0.51 -0.24 -0.51 -0.25 -0.51 -0.24 -0.01 0 -0.5 -0.24 -0.01 0 -0.5 -0.24 -0.01 0 -0.5 -0.25 -0.01 0 -0.5 -0.24 -0.01 0 -0.5 -0.24 -0.01 0 -0.5 -0.25 -0.01 0 -0.5 -0.24 -0.01 0 -0.5 -0.24 -0.01 0 -0.5 -0.25 -0.01 0 -0.5 -0.24 -0.01 0 -0.5 -0.25 -0.01 0 -0.5 -0.24 -0.01 0 -0.5 -0.24 -0.01 0 -0.5 -0.25 -0.01 0 -0.1 -0.05 -0.01 0 -0.1 -0.04 -0.01 0 -0.09 -0.05 -0.01 0 -0.1 -0.04 -0.01 0 -0.1 -0.05 -0.01 0 -0.09 -0.05 -0.01 0 -0.1 -0.04 -0.01 0 -0.1 -0.05 -0.1 -0.05 -0.01 0 -0.1 -0.05 -0.1 -0.05 -0.01 0 -0.1 -0.05 -0.11 -0.05 -0.1 -0.05 -0.11 -0.05 -0.1 -0.05 -0.1 -0.05 -0.01 0 -0.1 -0.05 -0.1 -0.05 -0.11 -0.05 -0.1 -0.06 -0.1 -0.05 -0.11 -0.05 -0.1 -0.06 -0.1 -0.05 -0.11 -0.05 -0.09 -0.06 -0.11 -0.05 -0.1 -0.06 -0.1 -0.06 -0.01 0 -0.09 -0.05 -0.01 0 -0.09 -0.06 -0.01 0 -1.66 -0.83 -0.01 0 -1.66 -0.82 -0.01 0 -1.66 -0.83 -0.01 0 -1.66 -0.83 -0.01 0 -1.66 -0.83 -0.01 0 -1.66 -0.84 -0.01 0 -1.66 -0.83 -0.01 0 -1.65 -0.83 -0.01 0 -1.66 -0.84 -0.01 0 -1.65 -0.84 -0.01 0 -1.66 -0.84 -1.66 -0.84 -0.01 0 -1.65 -0.84 -0.01 0 -1.65 -0.84 -0.01 0 -1.65 -0.85 -0.01 0 -1.65 -0.85 -0.01 0 -1.65 -0.84 -1.65 -0.85 -0.01 0 -1.65 -0.85 -0.01 0 -1.64 -0.85 -0.01 0 -1.65 -0.86 -1.65 -0.85 -0.01 0 -1.64 -0.86 -0.01 0 -1.64 -0.85 -0.01 0 -1.64 -0.86 -0.01 0 -1.64 -0.86 -0.01 0 -1.64 -0.86 -0.01 0 -1.64 -0.86 -0.01 0 -1.63 -0.87 -0.01 0 -1.64 -0.86 -0.01 0 -1.63 -0.87 -0.01 0 -1.64 -0.87 -0.01 0 -1.63 -0.87 -0.01 0 -1.63 -0.87 -0.01 0 -1.63 -0.87 -0.01 0 -1.63 -0.87 -0.01 0 -1.63 -0.88 -0.01 0 -1.63 -0.87 -0.01 0 -1.62 -0.88 -0.02 0 -1.62 -0.88 -0.01 0 -1.62 -0.88 -0.02 0 -1.62 -0.88 -0.01 0 -1.62 -0.88 -0.02 0 -1.61 -0.89 -0.02 0 -1.61 -0.88 -0.02 0 -1.61 -0.89 -0.02 0 -1.61 -0.89 -0.02 0 -1.61 -0.89 -0.02 0 -1.61 -0.89 -0.01 0 -1.61 -0.89 -0.02 0 -1.61 -0.9 -0.01 0 -1.61 -0.89 -0.02 0 -1.6 -0.9 -0.02 0 -1.61 -0.9 -0.01 0 -1.61 -0.89 -0.02 0 -1.6 -0.91 -0.02 0 -1.6 -0.9 -0.01 0 -1.6 -0.9 -0.02 0 -1.6 -0.91 -0.02 0 -1.6 -0.9 -0.02 0 -1.59 -0.91 -0.02 0 -1.6 -0.91 -0.02 0 -1.59 -0.91 -0.02 0 -1.59 -0.91 -0.02 0 -0.69 -0.4 -0.02 0 -0.7 -0.4 -0.02 0 -0.69 -0.39 -0.02 0 -0.69 -0.4 -0.02 0 -0.7 -0.4 -0.02 0 -0.69 -0.4 -0.02 0 -0.69 -0.4 -0.02 0 -0.69 -0.4 -0.02 0 -0.7 -0.4 -0.01 0 -0.7 -0.4 -0.01 0 -0.7 -0.4 -0.02 0 -0.69 -0.4 -0.02 0 -0.69 -0.4 -0.02 0 -0.69 -0.4 -0.02 0 -0.69 -0.4 -0.02 0 -0.69 -0.4 -0.73 -0.41 -0.69 -0.4 -0.02 0 -0.69 -0.4 -0.02 0 -0.69 -0.4 -0.73 -0.41 -0.69 -0.4 -0.01 0 -0.7 -0.4 -0.01 0 -0.7 -0.41 -0.01 0 -0.7 -0.4 -0.01 0 -0.7 -0.41 -0.01 0 -0.7 -0.4 -0.71 -0.41 -0.7 -0.4 -0.01 0 -0.7 -0.41 -0.01 0 -0.7 -0.4 -0.71 -0.41 -0.7 -0.4 -0.01 0 -0.7 -0.41 -0.71 -0.41 -0.7 -0.4 -0.71 -0.41 -0.71 -0.41 -0.7 -0.41 -0.71 -0.41 -0.7 -0.4 -0.71 -0.41 -0.7 -0.41 -0.7 -0.41 -0.01 0 -0.7 -0.41 -0.7 -0.41 -0.01 0 -0.7 -0.41 -0.7 -0.41 -0.7 -0.41 -0.01 0 -0.7 -0.41 -0.7 -0.42 -0.7 -0.41 -0.01 0 -0.69 -0.41 -0.01 0 -0.7 -0.41 -0.7 -0.41 -0.7 -0.42 -0.01 0 -0.69 -0.41 -0.01 0 -0.69 -0.41 -0.01 0 -0.7 -0.42 -0.7 -0.41 -0.7 -0.42 -0.7 -0.41 -0.7 -0.41 -0.7 -0.42 -0.11 -0.06 -0.11 -0.06 -0.11 -0.06 -0.11 -0.06 -0.11 -0.06 -0.11 -0.06 -0.1 -0.07 -0.01 0 -0.1 -0.06 -0.1 -0.07 -0.01 0 -0.1 -0.06 -0.01 0 -0.09 -0.07 -0.01 0 -0.51 -0.33 -4.21 -2.54 -0.01 0 -2.79 -1.7 -0.01 0 -1.38 -0.85 -0.01 0 -1.39 -0.85 -0.01 0 -1.38 -0.86 -0.01 0 -1.38 -0.85 -0.01 0 -1.38 -0.86 -0.01 0 -1.38 -0.85 -0.01 0 -1.38 -0.86 -0.01 0 -1.38 -0.86 -1.38 -0.85 -0.01 0 -1.38 -0.86 -1.39 -0.86 -1.38 -0.87 -1.38 -0.86 -1.39 -0.86 -1.38 -0.87 -1.38 -0.86 -1.38 -0.87 -1.37 -0.87 -0.01 0 -1.37 -0.86 -1.38 -0.87 -1.37 -0.87 -0.01 0 -1.37 -0.87 -1.37 -0.88 -1.37 -0.87 -0.01 0 -1.36 -0.87 -0.01 0 -1.37 -0.88 -1.37 -0.87 -1.36 -0.88 -0.01 0 -1.36 -0.88 -0.01 0 -1.36 -0.88 -1.37 -0.88 -1.36 -0.88 -0.01 0 -1.35 -0.88 -0.01 0 -1.36 -0.88 -1.36 -0.89 -0.01 0 -1.35 -0.88 -0.01 0 -1.35 -0.89 -0.01 0 -1.35 -0.88 -0.01 0 -1.35 -0.89 -0.01 0 -1.35 -0.89 -0.01 0 -1.35 -0.89 -1.35 -0.89 -0.01 0 -1.35 -0.89 -1.35 -0.9 -0.01 0 -1.35 -0.89 -1.35 -0.89 -1.35 -0.9 -0.01 0 -1.34 -0.9 -0.01 0 -1.34 -0.89 -0.01 0 -1.34 -0.9 -1.35 -0.9 -1.35 -0.9 -1.34 -0.9 -1.35 -0.9 -1.34 -0.91 -1.34 -0.9 -0.01 0 -1.34 -0.91 -1.34 -0.9 -1.34 -0.91 -3.66 -2.44 -3.66 -2.41 -3.67 -2.37 -3.68 -2.35 -3.68 -2.3 -3.69 -2.28 -3.7 -2.24 -3.7 -2.21 -3.71 -2.17 -3.71 -2.14 -0.01 0 -3.71 -2.11 -0.01 0 -3.71 -2.07 -0.01 0 -3.72 -2.03 -0.01 0 -3.73 -2 -3.73 -1.97 -0.01 0 -3.73 -1.93 -0.01 0 -3.74 -1.89 -0.01 0 -3.74 -1.85 -0.01 0 -3.74 -1.82 -0.01 0 -3.74 -1.78 -0.01 0 -3.75 -1.75 -0.01 0 -3.75 -1.7 -0.01 0 -3.75 -1.67 -0.02 0 -3.75 -1.63 -0.01 0 -3.76 -1.59 -0.01 0 -3.75 -1.56 -0.01 0 -3.76 -1.51 -0.01 0 -3.76 -1.47 -0.01 0 -3.76 -1.43 -0.01 0 -3.77 -1.38 -0.01 0 -3.76 -1.35 -0.01 0 -3.76 -1.31 -0.01 0 -3.76 -1.26 -0.01 0 -3.76 -1.23 -0.01 0 -3.76 -1.18 -0.01 0 -3.76 -1.15 -0.01 0 -3.76 -1.1 -0.01 0 -3.76 -1.06 -0.01 0 -3.75 -1.02 -0.01 0 -3.76 -0.98 -3.76 -0.93 -3.76 -0.89 -3.75 -0.85 -0.01 0 -3.75 -0.8 -3.75 -0.77 -3.74 -0.71 -0.01 0 -3.74 -0.68 -3.74 -0.63 -3.73 -0.58 -3.73 -0.54 -3.73 -0.5 -3.72 -0.44 -3.72 -0.39 -3.71 -0.35 -3.7 -0.3 -3.7 -0.26 -3.69 -0.2 -0.01 0 -3.68 -0.17 -3.68 -0.11 -3.67 -0.07 -0.01 0 -3.66 -0.02 -3.66 0.03 -3.65 0.08 -0.01 0 -3.63 0.12 -0.01 0 -3.14 0.14 -0.01 0 -3.14 0.18 -3.14 0.22 -3.13 0.26 -0.01 0 -3.12 0.29 -0.01 0 -3.12 0.34 -3.12 0.37 -3.11 0.41 -3.11 0.45 -3.1 0.48 -3.09 0.54 -3.09 0.58 -3.08 0.61 -3.07 0.66 -3.06 0.69 -0.01 0 -3.05 0.74 -0.01 0 -3.04 0.77 -0.01 0 -3.04 0.82 -3.03 0.86 -0.01 0 -3.02 0.89 -0.01 0 -3.01 0.94 -0.01 0 -3 0.98 -0.01 0 -2.99 1.02 -0.01 0 -2.99 1.06 -2.98 1.1 -0.01 0 -2.97 1.15 -0.01 0 -2.96 1.19 -0.01 0 -2.95 1.22 -2.95 1.28 -2.94 1.31 -2.93 1.36 -2.92 1.4 -2.9 1.44 -0.01 0 -2.89 1.49 -0.01 0 -2.88 1.54 -0.01 0 -2.87 1.58 -0.01 0 -2.86 1.63 -0.01 0 -2.85 1.67 -0.01 0 -2.83 1.71 -0.01 0 -2.83 1.76 -0.01 0 -2.81 1.8 -0.01 0 -2.8 1.85 -0.01 0 -2.79 1.89 -0.01 0 -2.78 1.94 -0.01 0 -2.77 1.98 -0.01 0 -2.75 2.03 -0.01 0 -2.75 2.07 -2.74 2.12 -2.72 2.17 -0.01 0 -2.71 2.21 -2.7 2.25 -2.68 2.31 -0.01 0 -2.67 2.35 -0.01 0 -2.65 2.39 -0.01 0 -2.64 2.44 -2.63 2.5 -0.01 0 -2.61 2.55 -0.01 0 -2.6 2.6 -2.59 2.64 -2.57 2.69 -0.01 0 -2.55 2.74 -0.01 0 -2.54 2.78 -0.01 0 -2.52 2.84 -0.01 0 -2.51 2.88 -0.01 0 -0.07 0.1 -0.01 0 -0.07 0.09 -0.01 0 -0.07 0.1 -0.01 0 -0.07 0.09 -0.01 0 -0.07 0.1 -0.01 0 -0.14 0.19 -0.01 0 -0.14 0.2 -0.01 0 -0.56 0.78 -0.01 0 -0.12 0.19 -0.01 0 -0.12 0.19 -0.01 0 -0.05 0.1 -0.01 0 -0.05 0.09 -0.01 0 -0.05 0.1 -0.01 0 -0.05 0.1 -0.01 0 -0.05 0.09 -0.01 0 -0.05 0.1 -0.01 0 -0.1 0.19 -0.01 0 -0.1 0.19 -0.01 0 -0.04 0.1 -0.01 0 -0.1 0.19 -0.01 0 -0.04 0.1 -0.01 0 -0.04 0.1 -0.01 0 -0.08 0.19 -0.01 0 -0.04 0.1 -0.01 0 -0.04 0.09 -0.01 0 -0.03 0.1 -0.01 0 -0.08 0.19 -0.01 0 -0.03 0.1 -0.01 0 -0.03 0.1 -0.01 0 -0.03 0.09 -0.01 0 -0.03 0.1 -0.01 0 -0.03 0.1 -0.01 0 -0.03 0.09 -0.01 0 -0.03 0.1 -0.01 0 -0.06 0.19 -0.01 0 -0.06 0.19 -0.01 0c-0.12,0.31 -0.23,0.62 -0.3,0.98 -0.31,1.37 -0.39,2.88 -0.23,4.48l0.01 0 0 0.12 0.01 0 0.03 0.35 0.01 0 0.02 0.23 0.01 0 0.15 0.96 0.01 0 0.01 0.12 0.01 0 0.04 0.24 0.01 0 0.02 0.12 0.01 0 0.01 0.12 0.01 0 0.02 0.12 0.01 0 0.02 0.13 0.01 0 0.02 0.12 0.01 0 0.02 0.12 0.01 0 0.02 0.12 0.01 0 0.02 0.12 0.01 0 0.02 0.12 0.01 0 0.02 0.12 0.01 0 0.09 0.36 0.01 0c0.24,0.87 0.54,1.69 0.89,2.43l0.01 0 0.18 0.41 0.01 0 0.04 0.1 0.01 0 0.04 0.09 0.01 0 0.04 0.1 0.01 0 0.04 0.1 0.01 0 0.04 0.09 0.01 0 0.05 0.1 0.01 0 0.04 0.09 0.01 0 0.04 0.1 0.06 0.09 0.05 0.09 0.01 0 0.05 0.09 0.06 0.09 0.05 0.09 0.06 0.09 0.05 0.09 0.01 0 0.05 0.08 0.06 0.09 0.06 0.09 0.05 0.08 0.01 0 0.05 0.08 0.01 0 0.05 0.09 0.01 0c0.19,0.27 0.36,0.53 0.62,0.79l0.52 0.56 0.01 0 0.14 0.15 0.01 0 0.07 0.08 0.01 0 0.06 0.07 0.01 0 0.07 0.08 0.01 0 0.07 0.07 0.01 0 0.07 0.07 0.01 0 0.07 0.08 0.01 0 0.07 0.07 0.01 0 0.07 0.07 0.01 0 0.08 0.07 0.08 0.07 0.08 0.07 0.09 0.07 0.08 0.07 0.09 0.07 0.09 0.07 0.08 0.07 0.01 0 0.08 0.06 0.09 0.07 0.09 0.07 0.09 0.06 0.09 0.07 0.01 0 0.08 0.06 0.01 0 0.08 0.07 0.1 0.06 0.09 0.06 0.01 0 0.09 0.06 0.09 0.07 0.01 0 0.09 0.06 0.1 0.06 0.09 0.06 0.01 0 0.09 0.06 0.01 0 0.09 0.06 0.01 0 0.09 0.05 0.01 0 0.09 0.06 0.01 0 0.1 0.06 0.1 0.06 0.1 0.05 0.1 0.06 0.01 0 0.1 0.05 0.1 0.06 0.11 0.05 0.1 0.05 0.01 0 0.1 0.06 0.01 0 0.1 0.05 0.1 0.05 0.01 0 0.1 0.05 0.01 0 0.1 0.05 0.01 0 0.1 0.05 0.01 0 0.1 0.05 0.01 0 0.1 0.05 0.02 0 0.1 0.05 0.01 0 0.1 0.04 0.01 0 0.1 0.05 0.02 0 0.1 0.04 0.01 0 0.1 0.05 0.02 0 5.44 2.18 0.02 0 5.44 2.19 0.01 0 5.43 2.22 0.01 0 5.41 2.24 0.01 0 5.41 2.26 0.01 0 5.39 2.27 0.01 0 5.39 2.3 5.38 2.32 0.01 0 5.36 2.33 0.01 0 5.36 2.36 5.35 2.37 0.01 0 5.34 2.4 5.33 2.41 0.01 0 5.32 2.43 5.31 2.47 5.31 2.48 5.29 2.5 5.28 2.52 0.01 0 5.27 2.55 5.26 2.56 5.25 2.58 0.01 0 5.23 2.59 0.01 0 5.22 2.62 0.01 0 5.22 2.64 5.21 2.66 5.19 2.67 0.01 0 5.18 2.7 0.01 0 5.17 2.71 0.01 0 5.16 2.73 5.15 2.75 0.01 0 5.14 2.77 5.13 2.79 0.01 0 5.12 2.81 5.11 2.83 5.1 2.84 5.09 2.87 5.08 2.88 5.06 2.9 0.01 0 5.05 2.93 5.04 2.93 0.01 0 5.03 2.96 5.02 2.98 5.01 2.99 4.99 3.02 4.99 3.03 4.97 3.05 4.96 3.07 4.95 3.08 4.94 3.11 4.93 3.12 4.91 3.14 4.9 3.16 4.89 3.18 4.88 3.2 4.87 3.21 4.85 3.24 4.84 3.25 4.83 3.26 4.81 3.29 4.8 3.3 0.01 0 4.78 3.33 0.01 0 4.77 3.34 4.77 3.35 4.75 3.38 4.74 3.4 4.73 3.41 4.72 3.43 4.7 3.46 4.69 3.48 4.68 3.49 4.66 3.52 4.65 3.53 4.64 3.54 4.63 3.57 4.61 3.58 4.6 3.6 4.58 3.62 0.01 0 4.57 3.63 4.56 3.65 4.54 3.67 4.53 3.68 0.01 0 4.51 3.71 0.01 0 4.5 3.72 4.49 3.73 4.48 3.76 4.46 3.77 0.01 0 4.45 3.79 4.42 3.8 4.42 3.82 4.4 3.84 4.38 3.85 4.37 3.88 4.36 3.89 4.34 3.9 4.33 3.92 4.31 3.94 0.01 0 4.3 3.96 4.28 3.97 4.27 3.99 4.26 4 4.24 4.02 4.23 4.04 4.22 4.05 4.19 4.07 0.01 0 4.18 4.09 4.17 4.1 4.15 4.12 4.14 4.14 4.13 4.15 4.11 4.17 4.09 4.18 4.08 4.2 4.07 4.22 4.05 4.23 4.03 4.25 4.02 4.26 4 4.28 0.01 0 3.98 4.29 0.01 0 3.96 4.32 0.01 0 3.95 4.32 0.01 0 3.93 4.34 0.01 0 3.92 4.36 0.01 0 3.9 4.38 0.01 0 3.88 4.39 0.01 0 3.87 4.4 0.01 0 11.53 13.33c7.91,9.25 9.23,21.92 4.4,32.29l-0.01 0 -0.99 1.95 -0.01 0 -0.36 0.65 -0.01 0 -0.37 0.63 -0.01 0 -0.38 0.63 -0.01 0 -0.41 0.61 -0.01 0 -0.42 0.61 -0.44 0.6 -0.01 0 -0.46 0.59 -0.48 0.59 -0.5 0.57 -0.52 0.56 -0.54 0.55 -0.55 0.54 -0.57 0.53 -0.58 0.52 -0.01 0 -0.59 0.5 -0.01 0 -0.6 0.47 -0.01 0 -0.6 0.46 -0.01 0 -0.62 0.44 -0.01 0 -0.62 0.42 -0.01 0 -0.63 0.4 -0.01 0 -0.64 0.39 -0.01 0 -0.64 0.36 -0.01 0 -0.66 0.35 -0.66 0.34 -0.01 0 -0.67 0.31 -0.68 0.3 -0.68 0.28 -0.01 0 -0.68 0.26 -0.01 0 -0.68 0.25 -0.01 0 -0.69 0.23 -0.01 0 -0.69 0.21 -0.01 0 -0.7 0.19 -0.71 0.17 -0.71 0.16 -0.72 0.14 -0.71 0.13 -0.01 0 -0.71 0.11 -0.72 0.08 -0.73 0.08 -0.72 0.05 -0.72 0.04 -0.72 0.02 -0.01 0 -0.72 0.01 -0.72 -0.02 -0.72 -0.03 -0.01 0 -0.72 -0.04 -0.72 -0.07 -0.71 -0.08 -0.01 0 -0.71 -0.1 -0.01 0 -0.7 -0.11 -0.01 0 -0.71 -0.13 -0.7 -0.15 -0.01 0 -0.7 -0.17 -0.01 0 -0.69 -0.18 -0.01 0 -0.69 -0.2 -0.01 0 -0.68 -0.21 -0.01 0 -0.68 -0.23 -0.01 0 -0.68 -0.25 -0.01 0 -0.66 -0.27 -0.02 0 -0.66 -0.28 -0.01 0 -0.65 -0.3 -0.02 0 -0.65 -0.31 -0.01 0 -0.64 -0.34 -0.02 0 -0.63 -0.34 -0.01 0 -0.63 -0.37 -0.01 0c-2.72,-1.62 -5.23,-3.69 -7.45,-6.29 -11.03,-12.88 -22.27,-25.55 -33.7,-38.02l-0.01 0 -3.81 -4.15 -0.01 0c-3.83,-4.14 -7.67,-8.25 -11.54,-12.35l-0.01 0 -3.87 -4.09 -0.01 0 -7.79 -8.12 -0.01 0 -7.85 -8.06 -0.01 0 -3.94 -4.01 -0.01 0 -3.96 -3.99 -0.01 0 -3.97 -3.98 -0.01 0 -3.98 -3.96 -0.01 0 -4 -3.94 -0.01 0 -4.01 -3.93 -0.01 0 -4.03 -3.92 -0.01 0 -4.04 -3.89 -0.01 0 -4.05 -3.89 -0.01 0 -4.07 -3.86 -0.01 0 -4.08 -3.85 -0.01 0 -4.1 -3.84 -0.01 0 -4.11 -3.81 -0.01 0 -4.12 -3.81 -0.01 0 -4.14 -3.78 -0.01 0 -4.15 -3.77 -0.01 0 -4.16 -3.76 -0.01 0 -4.18 -3.74 -0.01 0 -4.19 -3.72 -0.01 0 -4.21 -3.7 -4.22 -3.69 -0.01 0 -4.24 -3.68 -4.25 -3.65 -0.01 0 -4.26 -3.64 -0.01 0 -4.27 -3.63 -0.01 0 -4.28 -3.6 -0.01 0 -4.3 -3.6 -0.01 0 -4.31 -3.57 -0.01 0 -4.32 -3.56 -0.01 0 -4.34 -3.54 -0.01 0 -4.35 -3.53 -0.01 0 -4.36 -3.5 -0.01 0 -8.78 -6.96 -0.01 0 -4.4 -3.46 -0.01 0c-16.17,-12.63 -32.62,-24.9 -49.37,-36.86 -27.42,-19.59 -55.49,-38.25 -84.17,-55.92l-0.01 0c-6.37,-3.93 -12.77,-7.81 -19.19,-11.64l-0.01 0c-4.82,-2.88 -9.67,-5.72 -14.53,-8.55l-4.85 -2.81 -0.01 0 -4.86 -2.79 -0.01 0 -4.87 -2.77 -0.02 0 -4.88 -2.76 -0.01 0 -4.9 -2.74 -0.01 0 -4.9 -2.72 -0.01 0 -4.92 -2.7 -0.01 0 -4.92 -2.69 -0.02 0 -4.93 -2.66 -0.02 0 -4.94 -2.65 -0.01 0 -4.96 -2.63 -0.01 0 -4.96 -2.61 -0.02 0 -4.97 -2.59 -0.02 0 -4.98 -2.57 -0.02 0 -4.99 -2.56 -0.01 0 -5.01 -2.53 -0.01 0 -5.01 -2.52 -0.02 0 -5.02 -2.5 -0.02 0 -5.03 -2.48 -0.02 0 -5.04 -2.45 -0.02 0 -5.04 -2.44 -0.02 0 -5.06 -2.41 -0.02 0 -5.07 -2.4 -0.02 0 -10.18 -4.74 -0.02 0 -10.22 -4.67 -0.02 0 -10.26 -4.59 -0.02 0c-17.16,-7.57 -34.49,-14.84 -51.94,-21.8 -1.63,-0.64 -3.21,-1.32 -4.77,-2.05l-0.02 0 -0.5 -0.24 -0.02 0 -0.5 -0.25 -0.02 0 -1 -0.51 -0.02 0 -0.48 -0.25 -0.02 0 -0.48 -0.26 -0.02 0 -0.47 -0.27 -0.02 0 -0.47 -0.26 -0.02 0 -0.47 -0.27 -0.02 0 -0.47 -0.27 -0.02 0 -0.47 -0.28 -0.01 0 -0.47 -0.28 -0.01 0 -0.47 -0.28 -0.01 0 -0.95 -0.58 -0.01 0 -0.46 -0.29 -0.01 0 -0.46 -0.3 -0.01 0 -0.45 -0.29 -0.01 0 -0.46 -0.31 -0.01 0 -0.45 -0.3 -0.01 0 -0.44 -0.31 -0.01 0 -0.45 -0.31 -0.01 0 -0.44 -0.31 -0.01 0 -0.44 -0.32 -0.01 0 -0.43 -0.32 -0.01 0 -0.44 -0.32 -0.01 0 -0.43 -0.33 -0.01 0 -0.43 -0.33 -0.43 -0.33 -0.01 0 -0.42 -0.33 -0.01 0 -0.42 -0.34 -0.01 0 -0.42 -0.34 -0.01 0 -0.41 -0.35 -0.01 0 -0.41 -0.34 -0.01 0 -0.41 -0.35 -0.01 0 -0.4 -0.36 -0.01 0 -0.41 -0.35 -0.01 0 -0.4 -0.36 -0.4 -0.36 -0.01 0 -0.4 -0.37 -0.4 -0.37 -0.39 -0.37 -0.01 0 -0.39 -0.37 -0.01 0 -0.38 -0.38 -0.01 0 -0.38 -0.38 -0.01 0 -0.37 -0.38 -0.01 0 -0.38 -0.39 -0.01 0 -0.37 -0.38 -0.01 0 -0.36 -0.39 -0.01 0 -0.37 -0.4 -0.01 0 -0.36 -0.4 -0.01 0 -0.35 -0.39 -0.01 0 -0.36 -0.41 -0.01 0 -0.35 -0.4 -0.01 0 -0.35 -0.41 -0.01 0 -0.35 -0.42 -0.01 0 -0.35 -0.42 -0.01 0 -0.34 -0.43 -0.01 0 -0.34 -0.42 -0.01 0 -0.34 -0.43 -0.34 -0.43 -0.01 0 -0.33 -0.43 -0.01 0 -0.33 -0.44 -0.33 -0.44 -0.01 0 -0.32 -0.44 -0.01 0 -0.32 -0.44 -0.32 -0.45 -0.01 0 -0.31 -0.44 -0.01 0 -0.31 -0.45 -0.01 0 -0.3 -0.46 -0.01 0 -0.3 -0.45 -0.01 0 -0.3 -0.46 -0.01 0 -0.29 -0.45 -0.01 0 -0.29 -0.47 -0.01 0 -0.59 -0.93 -0.01 0 -0.28 -0.47 -0.01 0 -0.57 -0.95 -0.01 0 -1.36 -2.42 -0.01 0c-3.11,-5.7 -5.49,-11.8 -7.09,-18.42 -0.69,-2.8 -1.22,-5.6 -1.6,-8.4l-0.01 0 -0.06 -0.57 -0.01 0 -0.06 -0.56 -0.01 0 -0.05 -0.56 -0.01 0 -0.05 -0.57 -0.01 0 -0.04 -0.56 -0.01 0 -0.04 -0.56 -0.01 0 -0.04 -0.57 -0.01 0 -0.03 -0.56 -0.01 0 -0.03 -0.56 -0.01 0 -0.02 -0.56 -0.01 0 -0.02 -0.56 -0.01 0 -0.02 -0.57 -0.01 0 -0.01 -0.56 -0.01 0 -0.01 -0.56 -0.01 -0.56 -0.01 0 0 -0.56 -0.01 -0.56 0 -0.56 0.01 -0.56 0 -0.56 0.01 0 0.01 -0.56 0.01 -0.56 0.02 -0.56 0.03 -0.55 0.02 -0.56 0.01 0 0.03 -0.56 0.03 -0.56 0.01 0 0.03 -0.55 0.01 0 0.04 -0.56 0.05 -0.55 0.05 -0.56 0.06 -0.55 0.06 -0.56 0.06 -0.55 0.01 0 0.06 -0.55 0.01 0 0.06 -0.55 0.01 0 0.07 -0.56 0.01 0 0.07 -0.55 0.01 0 0.08 -0.55 0.09 -0.55 0.09 -0.55 0.01 0 0.09 -0.55 0.01 0 0.09 -0.54 0.01 0 0.09 -0.55 0.01 0 0.1 -0.55 0.01 0 0.11 -0.55 0.01 0 0.1 -0.54 0.01 0 0.11 -0.55 0.01 0 0.12 -0.54 0.01 0 0.1 -0.43 0.1 -0.44 0.01 0 0.11 -0.43 0.11 -0.43 0.12 -0.43 0.11 -0.44 0.12 -0.42 0.01 0 0.12 -0.43 0.12 -0.43 0.01 0 0.12 -0.43 0.13 -0.42 0.01 0 0.12 -0.43 0.01 0 0.13 -0.42 0.01 0 0.13 -0.43 0.01 0 0.13 -0.42 0.01 0 0.13 -0.42 0.01 0 0.14 -0.42 0.01 0 0.14 -0.42 0.01 0 0.14 -0.42 0.01 0 0.15 -0.42 0.01 0 0.47 -1.26 0.01 0 0.15 -0.41 0.01 0 0.16 -0.42 0.01 0 0.16 -0.41 0.01 0 0.16 -0.41 0.01 0 0.17 -0.41 0.01 0 0.17 -0.41 0.01 0 0.17 -0.41 0.01 0 0.17 -0.41 0.01 0 0.18 -0.4 0.01 0 0.18 -0.41 0.01 0 0.18 -0.41 0.01 0 0.18 -0.4 0.01 0 0.19 -0.4 0.01 0 0.19 -0.4 0.2 -0.4 0.01 0 0.2 -0.4 0.2 -0.4 0.01 0 0.2 -0.4 0.21 -0.4 0.01 0 0.21 -0.39 0.21 -0.4 0.01 0 0.21 -0.39 0.01 0 0.22 -0.39 0.22 -0.39 0.23 -0.39 0.23 -0.39 0.23 -0.39 0.23 -0.39 0.24 -0.38 0.24 -0.39 0.24 -0.38 0.24 -0.38 0.01 0 0.24 -0.38 0.25 -0.38 0.25 -0.38 0.25 -0.38 0.01 0 0.25 -0.38 0.01 0 0.25 -0.37 0.01 0 0.25 -0.38 0.01 0 0.25 -0.37 0.01 0 0.26 -0.37 0.01 0 -0.01 0 -3.49 -3.08 -0.01 0 -3.48 -3.09 -0.01 0 -3.47 -3.09 -0.01 0 -3.47 -3.1 -0.01 0 -3.46 -3.11 -0.01 0 -3.44 -3.11 -0.01 0 -3.44 -3.12 -0.01 0 -3.43 -3.13 -0.01 0 -3.43 -3.13 -3.42 -3.14 -0.01 0 -3.42 -3.15 -3.41 -3.15 -3.41 -3.15 -3.4 -3.17 -3.4 -3.17 -3.38 -3.17 -0.01 0 -3.38 -3.19 -3.37 -3.18 -3.37 -3.2 -3.36 -3.2 -3.36 -3.21 -3.35 -3.21 -3.34 -3.22 -3.33 -3.23 -3.33 -3.23 -3.32 -3.24 -3.32 -3.24 -3.31 -3.26 -3.3 -3.25 -3.29 -3.27 -3.29 -3.27 -3.28 -3.27 -3.28 -3.28 -3.26 -3.29 -0.01 0 -3.26 -3.3 -3.25 -3.3 -3.25 -3.3 -3.24 -3.31 -3.23 -3.32 -3.23 -3.33 -3.22 -3.33 -3.21 -3.34 -0.01 0 -3.2 -3.34 -3.2 -3.35 -3.19 -3.35 -0.01 0 -3.17 -3.36 -0.01 0 -3.17 -3.37 -0.01 0 -3.17 -3.38 -3.16 -3.38 -0.01 0 -3.15 -3.38 -0.01 0 -3.14 -3.39 -0.01 0 -3.13 -3.4 -0.01 0 -3.13 -3.4 -0.01 0 -3.12 -3.41 -0.01 0 -6.23 -6.85 -0.01 0 -3.1 -3.43 -0.01 0c-7.25,-8.02 -14.44,-16.08 -21.56,-24.2 -50.92,-57.94 -98.97,-118.38 -143.96,-181.12l-0.01 0 -2.98 -4.18 -0.01 0 -2.98 -4.2 -0.01 0 -2.96 -4.19 -0.01 0 -2.96 -4.21 -0.01 0 -2.95 -4.21 -0.01 0 -2.94 -4.21 -2.94 -4.23 -2.93 -4.23 -2.92 -4.24 -2.91 -4.24 -0.01 0 -2.9 -4.25 -2.89 -4.26 -2.89 -4.26 -2.87 -4.27 -2.87 -4.28 -2.85 -4.28 -0.01 0 -2.84 -4.29 -0.01 0 -2.83 -4.3 -0.01 0 -2.82 -4.3 -0.01 0 -1.52 -1.46 -0.01 0 -1.53 -1.44 -1.54 -1.43 -0.01 0 -1.55 -1.42 -1.57 -1.4 -1.57 -1.38 -1.59 -1.37 -1.59 -1.35 -0.01 0 -1.6 -1.34 -1.61 -1.33 -0.01 0 -1.61 -1.31 -0.01 0 -1.62 -1.29 -0.01 0 -1.63 -1.28 -0.01 0 -1.64 -1.26 -0.01 0 -1.65 -1.25 -0.01 0 -3.32 -2.45 -0.01 0c-26.22,-19.01 -55.58,-32.37 -86.25,-39.75 -2.73,-0.66 -5.46,-1.27 -8.2,-1.83l-2 -0.4 -0.05 0 -2 -0.39 -0.04 0 -2.01 -0.38 -0.05 0 -2.01 -0.36 -0.04 0 -2.02 -0.33 -0.04 0 -2.02 -0.33 -0.04 0 -2.02 -0.3 -0.04 0 -2.03 -0.29 -0.03 0 -2.04 -0.27 -0.03 0 -2.04 -0.25 -0.03 0 -2.04 -0.24 -0.03 0 -2.05 -0.21 -0.03 0 -2.05 -0.2 -0.02 0 -2.05 -0.19 -0.03 0 -2.05 -0.16 -0.03 0 -2.06 -0.15 -0.02 0 -2.06 -0.13 -0.03 0 -2.06 -0.11 -0.02 0 -2.06 -0.1 -0.03 0 -2.06 -0.08 -0.02 0 -2.07 -0.06 -0.02 0 -2.07 -0.04 -0.02 0 -2.07 -0.03 -0.02 0 -2.07 0 -0.02 0 -2.07 0.01 -0.02 0 -2.07 0.02 -0.02 0 -2.07 0.05 -0.02 0 -2.08 0.06 -0.02 0 -2.07 0.08 -0.02 0 -2.07 0.1 -0.02 0 -2.07 0.12 -0.02 0 -2.07 0.13 -0.02 0 -2.07 0.15 -0.02 0 -2.07 0.17 -0.02 0 -2.07 0.19 -0.02 0 -2.07 0.21 -0.02 0 -2.07 0.22 -0.02 0 -2.07 0.24 -0.02 0 -2.07 0.26 -0.01 0 -2.07 0.28 -0.02 0 -2.06 0.29 -0.02 0 -2.07 0.31 -0.02 0 -2.06 0.33 -0.02 0 -2.06 0.35 -0.02 0 -2.05 0.37 -0.02 0 -2.06 0.38 -0.02 0 -2.05 0.41 -0.02 0 -2.05 0.42 -0.02 0 -2.05 0.44 -0.02 0 -2.05 0.45 -0.02 0 -2.04 0.48 -0.02 0 -2.05 0.5 -0.01 0 -2.04 0.52 -0.02 0 -2.04 0.54 -0.01 0 -2.04 0.56 -0.02 0 -2.03 0.57 -0.02 0 -2.03 0.6 -0.01 0 -2.03 0.61 -0.02 0 -2.02 0.63 -0.01 0 -2.03 0.65 -0.01 0 -0.1 0.03 -0.01 0 -0.1 0.04 -0.01 0 -0.09 0.03 -0.01 0 -0.1 0.04 -0.01 0 -0.09 0.04 -0.01 0 -0.1 0.03 -0.01 0 -0.09 0.04 -0.01 0 -0.09 0.04 -0.02 0 -0.09 0.03 -0.01 0 -0.09 0.04 -0.01 0 -0.09 0.04 -0.01 0 -0.09 0.04 -0.01 0 -0.09 0.03 -0.01 0 -0.09 0.04 -0.01 0 -0.09 0.04 -0.01 0 -0.09 0.04 -0.01 0 -0.08 0.04 -0.02 0 -0.08 0.04 -0.01 0 -0.09 0.04 -0.01 0 -0.08 0.05 -0.02 0 -0.08 0.04 -0.01 0 -0.08 0.04 -0.01 0 -0.08 0.04 -0.02 0 -0.07 0.05 -0.02 0 -0.08 0.04 -0.01 0 -0.08 0.04 -0.02 0 -0.07 0.05 -0.02 0 -0.07 0.04 -0.02 0 -0.07 0.04 -0.02 0 -0.07 0.05 -0.1 0.05 -0.07 0.04 -0.02 0 -0.07 0.05 -0.02 0 -0.06 0.04 -0.02 0 -0.07 0.05 -0.19 0.1 -0.06 0.04c-0.72,0.43 -1.35,0.91 -1.98,1.41 -1.39,1.29 -2.62,3 -3.62,5.21 -0.43,0.99 -0.77,1.96 -1.01,2.9l-0.01 0 -0.04 0.19 -0.01 0 -0.06 0.29 -0.01 0 -0.01 0.09 -0.01 0 -0.01 0.1 -0.01 0 -0.01 0.09 -0.01 0 -0.01 0.1 -0.01 0 -0.01 0.09 -0.01 0 0 0.09 -0.01 0 -0.01 0.1 -0.01 0 -0.01 0.09 -0.01 0 0 0.09 -0.01 0 -0.01 0.09 -0.01 0 0 0.09 -0.02 0.09 -0.01 0.1 -0.01 0 0 0.09 -0.01 0 0 0.09 -0.01 0 0 0.09 -0.01 0 0 0.09 -0.01 0 0 0.09 -0.01 0 0 0.08 -0.01 0 0 0.09 -0.01 0.09 0 0.09 -0.01 0 0 0.09 0 0.08 -0.01 0 0 0.09 0 0.09 -0.01 0.08 0 0.09 0 0.08 0 0.09 0 0.09 0 0.09 0 0.09 0.01 0.08 0 0.09 0 0.09 0.01 0.09 0 0.09 0.01 0.09 0.01 0.09 0 0.1 0.01 0.09 0.01 0.09 0.01 0.09 0.01 0.09 0.01 0.09 0.01 0.1 0.01 0 0.01 0.09 0.01 0.09 0.02 0.1 0.01 0.09 0.02 0.1 0.01 0.09 0.01 0 0.01 0.09 0.02 0.1 0.02 0.1 0.02 0.09 0.02 0.1 0.02 0.09 0.02 0.1 0.02 0.1 0.01 0 0.01 0.09 0.01 0 0.02 0.1 0.02 0.1 0.01 0 0.02 0.1 0.03 0.1 0.02 0.09 0.01 0 0.02 0.1 0.01 0 0.02 0.1 0.03 0.1 0.03 0.1 0.03 0.1 0.04 0.1 0.02 0.11 0.04 0.1 0.03 0.1 0.01 0 0.03 0.1 0.03 0.1 0.01 0 0.03 0.11 0.04 0.1 0.03 0.1 0.01 0 0.03 0.11 0.01 0 0.03 0.1 0.01 0 0.03 0.11 0.01 0 0.03 0.1 0.01 0 0.04 0.11 0.04 0.1 0.04 0.11 0.05 0.1 0.04 0.11 0.05 0.11 0.04 0.1 0.05 0.11 0.05 0.11 7.83 17.53 7.94 17.46 0.01 0 8.05 17.4 8.16 17.32 8.27 17.26 8.39 17.18 0.01 0 8.49 17.11 0.01 0 8.6 17.05 8.72 16.97 8.82 16.9 8.92 16.83 0.01 0 9.03 16.76 9.14 16.69 9.24 16.62 0.01 0c3.1,5.53 6.2,11.05 9.34,16.55l0.01 0 9.46 16.47 9.56 16.4 0.01 0 9.66 16.33 0.01 0 9.76 16.24 0.01 0 9.87 16.17 9.97 16.09 0.01 0 10.07 16.02 0.01 0c3.37,5.32 6.76,10.66 10.17,15.95l10.28 15.87 10.39 15.79 10.48 15.72 0.01 0 10.58 15.63 10.68 15.57 0.01 0 10.78 15.48 10.87 15.41 0.01 0 10.97 15.32 0.01 0 11.06 15.24 0.01 0 11.16 15.16 0.01 0 11.26 15.08 11.36 15 0.01 0 11.46 14.92 11.56 14.84 11.65 14.76 11.74 14.67 11.84 14.6 11.92 14.51 0.01 0 12.01 14.43 0.01 0 12.1 14.34 0.01 0 12.2 14.26 12.29 14.16 12.39 14.09 12.48 13.99 12.57 13.92 12.66 13.83 12.74 13.74 12.83 13.65 12.92 13.57 13.01 13.48 13.09 13.4 13.17 13.3 13.26 13.21 0.01 0 13.35 13.12 13.44 13.03 13.52 12.94 13.61 12.85 13.69 12.76 13.77 12.67c4.6,4.21 9.22,8.39 13.85,12.57 4.64,4.17 9.26,8.34 13.93,12.49l14.07 12.44 14.15 12.36 14.24 12.24 14.32 12.16 14.4 12.06 14.48 11.96 14.56 11.87 14.63 11.77 14.71 11.68 14.79 11.58 14.87 11.49 14.94 11.38 15.01 11.28 0.01 0 15.09 11.18 15.16 11.09 15.24 10.98 15.32 10.88 15.39 10.79 0.01 0 15.46 10.69 15.54 10.58 15.61 10.48 15.68 10.39 15.75 10.27 15.82 10.17 15.89 10.06 15.96 9.97 16.03 9.86 16.09 9.76 0.01 0 16.16 9.65 16.23 9.55 16.3 9.44 16.37 9.33 0.01 0 16.43 9.22 16.5 9.12 0.01 0 16.56 9.01 16.63 8.9 16.7 8.8 16.75 8.69 0.01 0 16.81 8.58 0.01 0 16.88 8.47 16.94 8.35 17 8.25 0.01 0 17.06 8.13 17.13 8.03 17.18 7.91 17.26 7.81 17.31 7.69 17.37 7.58 17.43 7.47 17.48 7.34 0.01 0 17.54 7.24 17.6 7.12 17.65 7 17.71 6.89 17.76 6.78 0.01 0 17.81 6.67 0.01 0 17.87 6.54 17.92 6.44 0.01 0 17.97 6.3 0.01 0 18.02 6.19 0.01 0 18.07 6.08 0.01 0 18.13 5.95 0.01 0 18.17 5.84 0.01 0 18.24 5.72 0.01 0 4.04 1.27 0.01 0 4.02 1.31 0.01 0 4 1.35 0.01 0 3.97 1.37 0.02 0 3.95 1.41 0.01 0 3.93 1.45 0.02 0 3.91 1.49 0.01 0 3.89 1.52 0.01 0 3.86 1.56 0.02 0 3.84 1.59 0.01 0 3.82 1.62 0.02 0 3.79 1.66 0.02 0 3.77 1.69 0.02 0 3.75 1.72 0.01 0 3.73 1.75 0.01 0 3.71 1.79 0.01 0 3.68 1.82 0.02 0 3.66 1.85 0.01 0 3.63 1.88 0.02 0 3.61 1.91 0.01 0 3.59 1.94 0.01 0 3.57 1.98 0.01 0 3.54 2 0.01 0 3.52 2.04 0.01 0 3.5 2.07 0.01 0 3.47 2.1 0.01 0 3.43 2.12 0.01 0 3.42 2.16 3.39 2.19 0.01 0 3.36 2.22 0.01 0 3.34 2.24 3.32 2.28 3.3 2.3 3.26 2.34 0.01 0 3.24 2.36 3.22 2.39 3.19 2.42 3.16 2.45 3.14 2.48 3.11 2.52 0.01 0 3.08 2.54 3.05 2.56 0.01 0 3.02 2.6 0.01 0 3 2.62 0.01 0 2.97 2.65 0.01 0 5.86 5.37 0.01 0c16.46,15.38 31.59,32.02 45.27,49.83 23.36,30.34 42.45,63.95 56.7,100.08l0.01 0 1.44 3.74 0.01 0 1.41 3.77 0.01 0 1.37 3.78 0.01 0 1.34 3.8 0.01 0 1.3 3.82 0.01 0 1.27 3.83 0.01 0 1.23 3.85 0.01 0 1.2 3.87 1.17 3.88 0.01 0 1.12 3.9 0.01 0 1.09 3.92 0.01 0 1.06 3.93 0.01 0 1.02 3.94 0.01 0 0.98 3.96 0.01 0 0.95 3.98 0.92 3.99 0.88 4.01 0.01 0 0.84 4.02 0.81 4.03 0.77 4.05 0.01 0 0.72 4.07 0.01 0 0.69 4.08 0.01 0 0.65 4.09 0.01 0 0.62 4.1 0.01 0c0.4,2.74 0.77,5.5 1.11,8.25l0.01 0 0.5 4.14 0.01 0c1.29,11.06 2.18,22.27 2.63,33.62 1.57,37.94 2.45,75.87 2.68,113.8l0.01 0 0.01 4.37 0.01 0c0.05,11.67 0.04,23.34 -0.04,35.01l-0.01 0 -0.02 4.37 -0.01 0 -0.12 13.13 -0.01 0c-0.11,8.75 -0.24,17.5 -0.41,26.25l-0.01 0 -0.08 4.37 -0.01 0c-0.28,13.12 -0.64,26.24 -1.08,39.36l-0.01 0c-0.44,13.11 -0.98,26.23 -1.58,39.34l-0.04 1.23 -0.01 0 -0.13 3.06 -0.01 0 -0.02 0.62 -0.01 0 -0.02 0.62 -0.01 0 -0.02 0.62 -0.01 0 -0.02 0.61 -0.01 0 -0.02 0.62 -0.01 0 -0.02 0.62 -0.01 0 -0.02 0.61 -0.01 0 -0.01 0.62 -0.01 0 -0.02 0.62 -0.01 0 -0.02 0.61 -0.01 0 -0.03 0.62 -0.03 0.62 -0.03 0.61 -0.03 0.62 -0.03 0.62 -0.03 0.61 -0.03 0.62 -0.01 0 -0.02 0.61 -0.01 0 -0.02 0.62 -0.01 0 -0.02 0.62 -0.01 0 -0.02 0.61 -0.01 0 -0.02 0.62 -0.01 0 -0.03 0.61 -0.03 0.62 -0.03 0.62 -0.01 0 -0.02 0.61 -0.01 0 -0.02 0.62 -0.01 0 -0.02 0.61 -0.01 0 -0.03 0.62 -0.01 0 -0.02 0.61 -0.01 0 -0.02 0.62 -0.01 0 -0.02 0.62 -0.01 0 -0.03 0.61 -0.01 0 -0.02 0.62 -0.01 0 -0.02 0.61 -0.01 0 -0.06 1.22 -0.01 0 -0.09 1.84 -0.01 0c-0.17,3.46 -0.35,6.88 -0.62,10.39l0.04 0 712.99 0zm-1547.62 -1757.67c0.38,-85.66 14.16,-170.13 40.26,-250.48l0.01 0c1.4,-4.3 2.83,-8.6 4.29,-12.88l0.01 0c1.96,-5.71 3.97,-11.4 6.05,-17.05l0.01 0 1.57 -4.24 0.01 0 1.9 -5.05 0.01 0 1.93 -5.04 0.01 0 1.97 -5.03 0.01 0 2 -5.02 0.01 0 2.03 -5 0.01 0 2.06 -4.99 0.01 0 2.1 -4.98 0.01 0c2.12,-4.97 4.28,-9.91 6.51,-14.84l0.01 0 4.5 -9.83 0.01 0 2.29 -4.89 0.01 0 2.32 -4.88 0.01 0c16.46,-34.09 35.28,-67.09 56.37,-98.74l0.01 0c12.05,-18.08 24.84,-35.74 38.37,-52.9l0.01 0c19.15,-24.32 39.75,-47.63 61.78,-69.87l0.06 0.04 0.01 0 0.65 -0.67c9.08,-8.59 17.72,-17.53 25.9,-26.79l0.01 0 3.48 -4 0.01 0 5.11 -6.06 0.01 0 1.67 -2.04 0.01 0 1.66 -2.04 0.01 0 3.28 -4.13 0.01 0 1.61 -2.08 0.01 0 1.61 -2.08 0.01 0 1.59 -2.1 1.58 -2.1 0.01 0 1.56 -2.11 0.01 0 1.55 -2.12 0.01 0 1.54 -2.13 1.52 -2.14 0.01 0 1.51 -2.15 1.5 -2.15 1.49 -2.17 1.46 -2.17 1.45 -2.18 1.43 -2.19 0.01 0 1.41 -2.19 0.01 0 1.4 -2.21 1.39 -2.21 1.38 -2.22 1.36 -2.23 1.35 -2.23 1.33 -2.25 0.01 0 1.31 -2.25 0.01 0 1.3 -2.26 1.29 -2.26 1.28 -2.28 1.26 -2.28 1.24 -2.28 0.01 0 1.23 -2.3 1.22 -2.3 1.2 -2.31 1.19 -2.31 1.17 -2.33 0.01 0 1.15 -2.33 0.01 0 1.14 -2.33 1.13 -2.34 0.01 0 1.1 -2.35 0.01 0 1.09 -2.36 0.01 0 1.08 -2.36 0.01 0 1.06 -2.37 0.01 0 1.05 -2.37 0.01 0 1.03 -2.38 0.01 0 1.03 -2.41 0.01 0 1.01 -2.41 0.01 0 0.99 -2.42 0.01 0 0.98 -2.43 0.01 0 0.97 -2.43 0.01 0 0.95 -2.44 0.01 0 0.94 -2.45 0.92 -2.45 0.01 0 0.91 -2.45 0.01 0 0.89 -2.47 0.01 0 0.87 -2.48 0.01 0 0.86 -2.48 0.01 0 0.84 -2.49 0.01 0 0.83 -2.49 0.01 0 0.81 -2.5 0.01 0 0.8 -2.5 0.79 -2.51 0.77 -2.52 0.01 0 0.75 -2.51 0.01 0 0.73 -2.53 0.01 0 0.72 -2.52 0.01 0 0.7 -2.54 0.01 0 0.69 -2.53 0.01 0 0.67 -2.54 0.01 0 0.66 -2.55 0.64 -2.55 0.01 0 0.63 -2.55 0.62 -2.56 0.6 -2.56 0.58 -2.57 0.01 0 0.56 -2.57 0.01 0 0.55 -2.58 0.53 -2.57 0.01 0 0.52 -2.59 0.5 -2.58 0.48 -2.59 0.47 -2.59 0.44 -2.6 0.01 0 0.43 -2.6 0.41 -2.6 0.4 -2.61 0.38 -2.61 0.37 -2.61 0.35 -2.62 0.33 -2.61 0.01 0 0.31 -2.62 0.3 -2.63 0.01 0 0.28 -2.62 0.27 -2.63 0.25 -2.64 0.24 -2.63 0.22 -2.64 0.2 -2.63 0.19 -2.65 0.17 -2.64 0.15 -2.64 0.01 0 0.13 -2.65 0.12 -2.65 0.1 -2.65 0.01 0 0.08 -2.65 0.01 0 0.06 -2.66 0.01 0 0.04 -2.65 0.01 0 0.03 -2.66 0.01 0 0.01 -2.66 0.01 0 -0.01 -0.41 0 -0.14 -0.01 -0.13 0 -0.14 -0.02 -0.27 0 -0.13 -0.01 0 0 -0.13 -0.01 0 -0.03 -0.4 -0.01 0 -0.02 -0.27 -0.01 0 -0.02 -0.26 -0.01 0 -0.01 -0.13 -0.01 0 -0.01 -0.13 -0.01 0 -0.01 -0.13 -0.01 0 -0.06 -0.39 -0.01 0 -0.04 -0.26 -0.01 0 -0.2 -0.89 -0.01 0 -0.06 -0.25 -0.01 0 -0.1 -0.37 -0.01 0 -0.03 -0.12 -0.01 0 -0.03 -0.13 -0.01 0 -0.16 -0.48 -0.01 0 -0.13 -0.35 -0.01 0 -0.04 -0.12 -0.01 0 -0.04 -0.12 -0.01 0 -0.04 -0.12 -0.01 0 -0.04 -0.11 -0.01 0 -0.04 -0.12 -0.01 0 -0.1 -0.23 -0.01 0 -0.11 -0.23 -0.05 -0.11 -0.01 0 -0.23 -0.44 -0.01 0 -0.05 -0.11 -0.01 0 -0.05 -0.11 -0.01 0 -0.12 -0.22 -0.01 0 -0.05 -0.1 -0.01 0 -0.06 -0.1 -0.01 0 -0.05 -0.11 -0.01 0 -0.06 -0.1 -0.01 0 -0.05 -0.1 -0.01 0 -0.06 -0.1 -0.01 0 -0.06 -0.1 -0.01 0 -0.06 -0.1 -0.01 0 -0.06 -0.09 -0.01 0 -0.06 -0.1 -0.01 0 -0.06 -0.1 -0.01 0 -0.07 -0.1 -0.01 0 -0.06 -0.09 -0.01 0 -0.07 -0.1 -0.01 0 -0.06 -0.09 -0.01 0 -0.07 -0.1 -0.01 0 -0.07 -0.09 -0.01 0 -0.07 -0.1 -0.01 0 -0.07 -0.09 -0.01 0 -0.07 -0.09 -0.01 0 -0.07 -0.09 -0.01 0 -0.08 -0.09 -0.01 0 -0.07 -0.09 -0.01 0 -0.08 -0.1 -0.01 0 -0.07 -0.08 -0.01 0 -0.08 -0.09 -0.01 0 -0.08 -0.09 -0.01 0 -0.08 -0.09 -0.01 0 -0.08 -0.09 -0.01 0 -0.08 -0.08 -0.01 0 -0.08 -0.09 -0.1 -0.08 -0.09 -0.09 -0.09 -0.08 -0.01 0 -0.09 -0.09 -0.1 -0.08 -0.09 -0.08 -0.01 0 -0.09 -0.08 -0.01 0 -0.09 -0.09 -0.01 0 -0.09 -0.08 -0.01 0 -0.09 -0.08 -0.11 -0.07 -0.1 -0.08 -0.1 -0.08 -0.01 0 -0.1 -0.08 -0.1 -0.07 -0.01 0 -0.1 -0.08 -0.11 -0.07 -0.11 -0.08 -0.11 -0.07 -0.11 -0.08 -0.11 -0.07 -0.11 -0.07 -0.11 -0.07 -0.01 0 -0.11 -0.07 -0.11 -0.07 -0.01 0 -0.11 -0.07 -0.11 -0.07 -0.01 0 -0.11 -0.06 -0.01 0 -0.11 -0.07 -0.01 0 -0.11 -0.07 -0.01 0 -0.11 -0.06 -0.01 0 -0.11 -0.07 -0.01 0 -0.11 -0.06 -0.01 0 -0.12 -0.06 -0.01 0 -0.11 -0.07 -0.01 0 -0.12 -0.06 -0.01 0 -0.12 -0.06 -0.01 0 -0.11 -0.06 -0.02 0 -0.11 -0.06 -0.01 0 -0.12 -0.06 -0.01 0 -0.12 -0.05 -0.01 0 -0.11 -0.06 -0.02 0 -0.11 -0.05 -0.02 0 -0.11 -0.06 -0.01 0 -0.12 -0.05 -0.01 0 -0.11 -0.05 -0.02 0 -0.11 -0.05 -0.02 0 -0.11 -0.05 -0.02 0 -0.11 -0.04 -0.01 0 -0.12 -0.05 -0.01 0 -0.11 -0.05 -0.02 0 -0.11 -0.04 -0.02 0 -0.11 -0.04 -0.02 0 -0.11 -0.04 -0.02 0 -0.11 -0.04 -0.01 0 -0.11 -0.04 -0.02 0 -0.11 -0.04 -0.02 0 -0.11 -0.04 -0.02 0 -0.11 -0.03 -0.02 0 -0.11 -0.04 -0.02 0 -0.11 -0.03 -0.01 0 -0.11 -0.03 -0.02 0 -0.11 -0.03 -0.02 0 -0.11 -0.03 -0.02 0 -0.11 -0.03 -0.02 0 -0.11 -0.03 -0.01 0 -0.11 -0.03 -0.02 0 -0.11 -0.02 -0.02 0 -0.11 -0.03 -0.02 0 -0.11 -0.02 -0.01 0 -0.11 -0.02 -0.02 0 -0.11 -0.02 -0.02 0 -0.11 -0.02 -0.02 0 -0.11 -0.02 -0.01 0 -0.11 -0.02 -0.02 0 -0.11 -0.01 -0.02 0 -0.11 -0.02 -0.01 0 -0.12 -0.01 -0.01 0 -0.11 -0.02 -0.02 0 -0.11 -0.01 -0.01 0 -0.12 -0.01 -0.01 0 -0.11 -0.01 -0.01 0 -0.12 -0.01 -0.01 0 -0.11 0 -0.01 0 -0.12 -0.01 -0.01 0 -0.12 0 -0.12 -0.01 -0.01 0 -0.12 0 -0.12 0 -0.01 0 -0.12 0 -0.12 0 -0.13 0 -0.12 0.01 -0.12 0 -0.01 0 -0.12 0.01 -0.12 0 -0.01 0 -0.11 0.01 -0.01 0 -0.11 0.01 -0.01 0 -0.11 0.01 -0.01 0 -0.11 0.01 -0.01 0 -0.11 0.01 -0.01 0 -0.11 0.01 -0.01 0 -0.11 0.02 -0.01 0 -0.11 0.01 -0.12 0.02 -0.12 0.02 -0.12 0.02 -0.12 0.02 -0.12 0.02 -0.12 0.02 -0.12 0.03 -0.12 0.02 -0.12 0.03 -0.12 0.02 -0.12 0.03 -0.12 0.03 -0.12 0.03 -0.11 0.04 -0.01 0 -0.11 0.03 -0.01 0 -0.11 0.03 -0.01 0 -0.11 0.04 -0.01 0 -0.11 0.03 -0.01 0 -0.11 0.04 -0.01 0 -0.11 0.04 -0.01 0 -0.11 0.04 -0.01 0 -0.11 0.04 -0.01 0 -0.11 0.04 -0.01 0 -0.1 0.04 -0.02 0 -0.1 0.05 -0.02 0 -0.1 0.04 -0.01 0 -0.11 0.05 -0.01 0 -0.11 0.05 -0.01 0 -0.11 0.05 -0.01 0 -0.1 0.05 -0.02 0 -0.1 0.05 -0.02 0 -0.1 0.05 -0.02 0 -0.1 0.05 -0.02 0 -0.1 0.06 -0.01 0 -0.1 0.05 -0.02 0 -0.1 0.06 -0.02 0 -0.1 0.05 -0.02 0 -0.1 0.06 -0.02 0 -0.09 0.06 -0.02 0 -0.1 0.06 -0.02 0 -0.1 0.06 -0.14 0.07 -0.09 0.06 -0.02 0 -0.1 0.06 -0.25 0.14 -0.1 0.06c-0.4,0.22 -0.8,0.45 -1.18,0.75l-14.39 10.35 -0.01 0 -9.55 6.95 -0.01 0 -9.51 7.01 -0.01 0 -14.19 10.59 -0.01 0 -4.71 3.56 -0.01 0 -4.7 3.57 -0.01 0 -4.69 3.58 -0.01 0 -4.68 3.6 -0.01 0 -4.67 3.6 -0.01 0 -4.66 3.62 -0.01 0 -9.3 7.25 -0.01 0 -4.63 3.66 -0.01 0 -9.24 7.32 -0.01 0 -4.6 3.69 -0.01 0 -4.6 3.7 -0.01 0 -4.58 3.7 -0.01 0 -4.58 3.72 -0.01 0 -9.12 7.48 -0.01 0 -9.08 7.52 -0.01 0 -4.53 3.78 -0.01 0 -13.53 11.39 -0.01 0c-5.99,5.08 -11.96,10.21 -17.9,15.36l-0.01 0c-5.94,5.14 -11.85,10.32 -17.74,15.53l-0.01 0c-5.88,5.2 -11.74,10.45 -17.58,15.71l-0.01 0c-8.74,7.89 -17.44,15.87 -26.06,23.9l-0.01 0 -12.89 12.1 -0.01 0 -8.54 8.11 -0.01 0 -4.24 4.08 -0.01 0 -8.48 8.18 -0.01 0 -4.21 4.11 -0.01 0 -8.42 8.25 -0.01 0 -4.18 4.14 -0.01 0 -4.17 4.15 -0.01 0 -4.06 4.06 -0.01 0 -4.04 4.06 -0.01 0 -4.04 4.08 -0.01 0 -4.02 4.08 -0.01 0 -4.02 4.1 -0.01 0 -4.01 4.1 -4 4.12 -0.01 0 -3.99 4.12 -0.01 0 -3.97 4.14 -0.01 0 -3.97 4.14 -0.01 0 -3.95 4.16 -0.01 0 -3.95 4.16 -0.01 0 -3.93 4.18 -0.01 0 -3.92 4.18 -0.01 0 -3.92 4.19 -0.01 0 -3.9 4.21 -0.01 0 -3.89 4.21 -0.01 0 -3.89 4.22 -0.01 0 -3.87 4.24 -0.01 0 -3.86 4.24 -0.01 0 -3.85 4.25 -0.01 0c-7.71,8.52 -15.36,17.09 -22.93,25.73l-0.01 0 -3.78 4.32 -0.01 0 -11.28 13.03 -0.01 0 -7.47 8.73 -0.01 0 -11.12 13.16 -0.01 0c-6.15,7.34 -12.26,14.72 -18.33,22.13l-0.01 0 -10.86 13.4 -0.01 0 -7.18 8.98 -0.01 0 -3.57 4.5 -0.01 0 -7.12 9.03 -0.01 0 -3.54 4.54 -0.01 0 -3.53 4.54 -3.52 4.55 -0.01 0 -3.51 4.56 -0.01 0 -3.5 4.57 -3.49 4.58 -0.01 0 -3.48 4.59 -3.47 4.59 -3.46 4.61 -3.44 4.61 -3.42 4.63 -0.01 0 -3.41 4.63 -0.01 0 -3.4 4.64 -0.01 0 -6.79 9.3c-0.01,11.47 0.06,22.92 0.19,34.39l0.01 0 0.17 12.9 0.01 0 0.06 4.3 0.01 0 0.07 4.3 0.01 0 0.08 4.29 0.01 0 0.08 4.3 0.01 0 0.09 4.3 0.1 4.29 0.01 0 0.1 4.3 0.01 0 0.11 4.3 0.01 0 0.12 4.3 0.13 4.3 0.14 4.29 0.14 4.3 0.15 4.3 0.16 4.3 0.16 4.3 0.17 4.29 0.18 4.3 0.18 4.3 0.19 4.3 0.19 4.3 0.01 0 0.19 4.3 0.01 0 0.2 4.29 0.01 0 0.21 4.3 0.01 0 0.21 4.3 0.01 0 0.22 4.3 0.01 0 0.98 17.2 0.01 0 0.25 4.3 0.01 0 0.26 4.29 0.01 0 0.84 12.9 0.01 0c1.87,27.26 4.14,54.52 6.76,81.68l0.02 0 2.04 0.73 0.02 0 2.05 0.75 0.02 0 2.04 0.75 0.02 0 2.05 0.77 0.01 0 2.05 0.77 0.01 0 2.05 0.79 0.01 0 2.05 0.79 0.01 0 2.05 0.81 0.01 0 2.05 0.81 0.01 0 2.04 0.83 0.02 0 2.04 0.83 0.01 0 2.05 0.85 0.01 0 2.04 0.85 0.01 0 2.05 0.86 0.01 0 2.04 0.88 0.01 0 2.04 0.88 0.01 0 2.04 0.9 0.01 0 2.04 0.9 0.01 0 2.04 0.92 0.01 0 2.04 0.92 2.04 0.93 0.01 0 2.04 0.94 2.04 0.96 2.04 0.96 0.01 0 2.03 0.97 0.01 0 2.03 0.98 2.04 0.99 2.04 1 2.03 1.01 2.03 1.02 0.01 0 2.03 1.03 2.03 1.03 2.02 1.05 0.01 0 2.02 1.05 2.03 1.07 2.02 1.07 2.02 1.09 2.02 1.09 2.02 1.1 2.02 1.11 2.01 1.12 2.02 1.13 2.01 1.14 2 1.14 0.01 0 2 1.16 0.01 0 2 1.16 2 1.17 2 1.19 0.01 0 1.99 1.19 2 1.19 1.99 1.21 0.01 0 1.98 1.22 0.01 0 1.98 1.22 0.01 0 1.98 1.24 0.01 0 1.98 1.24 0.01 0 1.97 1.25 0.01 0 1.97 1.26 0.01 0 1.97 1.27 0.01 0 1.97 1.27 0.01 0 1.96 1.29 0.01 0 5.9 3.91 0.01 0 1.95 1.32 1.82 1.22 0.01 0 0.6 0.4 0.01 0 0.6 0.41 0.01 0 0.6 0.4 0.01 0 0.6 0.4 0.01 0 0.6 0.4 0.01 0 0.6 0.4 0.01 0 0.6 0.41 0.01 0 0.6 0.4 0.01 0 0.6 0.4 0.01 0 0.6 0.4 0.01 0 0.6 0.4 0.61 0.4 0.61 0.4 0.61 0.4 0.61 0.39 0.61 0.4 0.61 0.4 0.61 0.4 0.01 0 0.6 0.4 0.01 0 0.6 0.39 0.01 0 0.6 0.4 0.01 0 0.6 0.4 0.01 0 0.6 0.4 0.01 0 0.61 0.39 0.61 0.4 0.61 0.39 0.61 0.4 0.61 0.39 0.61 0.4 0.61 0.39 0.01 0 0.61 0.4 0.61 0.39 0.61 0.4 0.61 0.39 0.61 0.39 0.61 0.4 0.01 0 0.6 0.39 0.01 0 0.61 0.39 0.61 0.39 0.61 0.4 0.01 0 0.6 0.39 0.01 0 0.6 0.39 0.01 0 0.61 0.39 0.61 0.39 0.01 0 0.6 0.39 0.01 0 0.6 0.39 0.01 0 0.6 0.39 0.01 0 0.61 0.39 0.01 0 0.6 0.39 0.01 0 0.6 0.39 0.01 0c2.19,1.46 4.41,2.91 6.68,4.31l0 -0.02 0.03 0.02zm194.77 18.05c3.71,-7.79 7.54,-15.51 11.52,-23.15l0.01 0c25.88,-49.61 57.52,-95.79 94.11,-137.74 19.97,-22.88 41.44,-44.47 64.23,-64.62l0.01 0c6,-5.3 12.1,-10.51 18.28,-15.61l0.01 0c3.71,-3.06 7.46,-6.07 11.22,-9.06l0.01 0 3.78 -2.98 0.01 0 3.8 -2.95 0.01 0 7.68 -5.82 0.01 0 3.86 -2.87 0.01 0 7.8 -5.67 0.01 0 3.93 -2.8 0.01 0 7.92 -5.51 0.01 0 3.99 -2.72 0.01 0 8.04 -5.35 0.01 0 4.05 -2.64 0.01 0 4.07 -2.61 0.01 0 4.08 -2.59 0.01 0 4.11 -2.56 0.01 0 4.12 -2.53 0.01 0 4.15 -2.51 0.01 0 4.16 -2.48 0.01 0 4.19 -2.44 4.21 -2.41 0.01 0 4.22 -2.39 0.01 0 4.24 -2.36 0.01 0 4.26 -2.33 4.29 -2.3 4.3 -2.28 4.33 -2.24 4.34 -2.22 4.36 -2.19 4.38 -2.16 4.39 -2.13 0.01 0 4.4 -2.11 0.01 0 4.42 -2.07 0.02 0 4.44 -2.05 0.02 0 4.46 -2.01 0.01 0 4.48 -1.99 0.02 0 1.75 -0.94 0.01 0 1.74 -0.96 0.02 0 1.74 -0.96 0.01 0 1.73 -0.97 0.01 0 1.73 -0.98 0.01 0 1.72 -0.98 0.01 0 1.71 -1 0.01 0 1.71 -1.01 0.01 0 1.7 -1.01 0.01 0 1.7 -1.02 1.69 -1.04 0.01 0 1.68 -1.04 1.69 -1.04 1.67 -1.06 1.67 -1.07 1.66 -1.07 1.65 -1.09 0.01 0 1.64 -1.09 0.01 0 1.63 -1.1 0.01 0 1.63 -1.11 1.62 -1.11 0.01 0 1.61 -1.13 0.01 0 1.6 -1.13 0.01 0 1.6 -1.14 1.59 -1.15 0.01 0 1.58 -1.16 0.01 0 1.57 -1.17 0.01 0 1.57 -1.17 0.01 0 1.56 -1.18 0.01 0 1.55 -1.19 0.01 0 1.54 -1.2 0.01 0 1.54 -1.21 1.53 -1.21 0.01 0 1.52 -1.22 0.01 0 1.52 -1.23 1.51 -1.24 0.01 0 1.5 -1.25 0.01 0 1.49 -1.25 0.01 0 1.47 -1.26 0.01 0 1.47 -1.27 1.46 -1.28 0.01 0 1.45 -1.28 0.01 0 1.44 -1.29 0.01 0 1.44 -1.3 0.01 0 1.42 -1.3 0.01 0 1.42 -1.32 0.01 0 1.41 -1.32 0.01 0 1.4 -1.33 0.01 0 1.4 -1.33 0.01 0 1.38 -1.35 0.01 0 1.38 -1.35 0.01 0 1.37 -1.35 0.01 0 1.36 -1.37 0.01 0 1.36 -1.37 0.01 0 1.34 -1.38 0.01 0 1.34 -1.38 0.01 0 1.33 -1.4 0.01 0 1.32 -1.4 0.01 0 2.64 -2.83 0.01 0 5.19 -5.74c3.91,-4.41 7.69,-8.92 11.37,-13.52l0.01 0 1.21 -1.54 0.01 0 1.2 -1.55 0.01 0 3.58 -4.67 0.01 0 3.5 -4.73 0.01 0 1.14 -1.59 0.01 0 1.13 -1.6 0.01 0c1.9,-2.66 3.75,-5.33 5.57,-8.05l0.01 0c14.57,-21.7 26.71,-45.03 36.13,-69.59 0.37,-0.97 0.65,-1.94 0.83,-2.91l0.01 0 0.04 -0.26 0.01 0 0.01 -0.14 0.01 0 0.01 -0.13 0.01 0 0.01 -0.13 0.01 0 0.01 -0.13 0.01 0 0.01 -0.13 0.01 0 0.01 -0.13 0.01 0 0 -0.13 0.01 0 0.01 -0.13 0.01 0 0 -0.13 0.01 0 0.01 -0.13 0.01 -0.12 0.01 -0.13 0.01 -0.13 0 -0.13 0.01 0 0 -0.13 0.01 0 0 -0.13 0 -0.13 0.01 0 0 -0.13 0 -0.12 0 -0.13 0 -0.13 0 -0.13 0 -0.12 0 -0.13 -0.01 0 0 -0.13 0 -0.12 -0.01 0 0 -0.13 -0.01 0 0 -0.12 -0.01 -0.13 -0.01 -0.12 -0.01 -0.13 -0.01 -0.12 -0.01 0 -0.01 -0.13 -0.01 -0.12 -0.01 0 -0.01 -0.13 -0.01 -0.12 -0.01 0 -0.01 -0.12 -0.01 0 -0.01 -0.13 -0.01 0 -0.01 -0.12 -0.01 0 -0.01 -0.12 -0.01 0 -0.01 -0.11 -0.01 0 -0.01 -0.11 -0.01 0 -0.04 -0.22 -0.01 0 -0.04 -0.23 -0.01 0 -0.02 -0.11 -0.01 0 -0.02 -0.11 -0.01 0 -0.02 -0.11 -0.01 0 -0.02 -0.11 -0.01 0 -0.06 -0.23 -0.01 0 -0.06 -0.22 -0.01 0c-0.62,-1.87 -1.72,-3.78 -3.37,-5.59l0.06 -0.07 -0.06 -0.06 -0.47 -0.51 -0.01 0 -0.18 -0.19 -0.01 0 -0.18 -0.19 -0.01 0 -0.18 -0.18 -0.01 0 -0.09 -0.1 -0.01 0 -0.09 -0.09 -0.01 0 -0.09 -0.08 -0.2 -0.18 -0.09 -0.08 -0.01 0 -0.09 -0.09 -0.11 -0.08 -0.1 -0.09 -0.1 -0.08 -0.1 -0.08 -0.01 0 -0.09 -0.08 -0.01 0 -0.1 -0.08 -0.1 -0.08 -0.1 -0.07 -0.01 0 -0.1 -0.08 -0.1 -0.07 -0.11 -0.08 -0.1 -0.07 -0.11 -0.07 -0.1 -0.07 -0.11 -0.07 -0.1 -0.07 -0.01 0 -0.1 -0.07 -0.11 -0.06 -0.11 -0.07 -0.1 -0.06 -0.01 0 -0.1 -0.07 -0.11 -0.06 -0.11 -0.06 -0.11 -0.06 -0.11 -0.06 -0.11 -0.06 -0.11 -0.06 -0.11 -0.05 -0.11 -0.06 -0.11 -0.05 -0.11 -0.06 -0.01 0 -0.11 -0.05 -0.11 -0.05 -0.11 -0.05 -0.11 -0.05 -0.01 0 -0.11 -0.05 -0.11 -0.04 -0.11 -0.05 -0.01 0 -0.11 -0.05 -0.11 -0.04 -0.01 0 -0.11 -0.04 -0.11 -0.04 -0.01 0 -0.11 -0.04 -0.11 -0.04 -0.01 0 -0.1 -0.04 -0.01 0 -0.11 -0.04 -0.01 0 -0.1 -0.03 -0.01 0 -0.11 -0.04 -0.11 -0.03 -0.01 0 -0.1 -0.03 -0.01 0 -0.11 -0.03 -0.11 -0.03 -0.01 0 -0.11 -0.03 -0.12 -0.02 -0.11 -0.03 -0.01 0 -0.11 -0.02 -0.12 -0.03 -0.12 -0.02 -0.12 -0.02 -0.12 -0.02 -0.12 -0.02 -0.12 -0.02 -0.12 -0.01 -0.12 -0.02 -0.01 0 -0.11 -0.01 -0.01 0 -0.12 -0.02 -0.12 -0.01 -0.01 0 -0.11 -0.01 -0.01 0 -0.12 -0.01 -0.01 0 -0.11 -0.01 -0.01 0 -0.12 -0.01 -0.01 0 -0.11 -0.01 -0.02 0 -0.11 0 -0.01 0 -0.12 -0.01 -0.01 0 -0.11 0 -0.02 0 -0.11 0 -0.02 0 -0.11 0 -0.02 0 -0.11 0 -0.02 0 -0.11 0 -0.02 0 -0.11 0 -0.02 0 -0.11 0 -0.02 0 -0.11 0 -0.02 0 -0.11 0.01 -0.02 0 -0.11 0 -0.02 0 -0.12 0.01 -0.02 0 -0.11 0.01 -0.02 0 -0.11 0.01 -0.02 0 -0.11 0.01 -0.03 0 -0.11 0.01 -0.02 0 -0.11 0.01 -0.03 0 -0.11 0.02 -0.02 0 -0.11 0.01 -0.03 0 -0.11 0.02 -0.03 0 -0.1 0.01 -0.03 0 -0.11 0.02 -0.03 0 -0.11 0.02 -0.03 0 -0.1 0.02 -0.03 0 -0.11 0.02 -0.03 0 -0.11 0.02 -0.03 0 -0.11 0.03 -0.03 0 -0.11 0.02 -0.03 0 -0.1 0.03 -0.04 0 -0.1 0.02 -0.04 0 -0.1 0.03 -0.04 0 -0.1 0.03 -0.04 0 -0.1 0.03 -0.04 0 -0.11 0.03 -0.03 0 -0.11 0.03 -0.03 0 -0.11 0.04 -0.03 0 -0.11 0.03 -0.03 0 -5.29 1.35 -0.03 0 -5.27 1.38 -0.03 0 -5.28 1.39 -0.03 0 -5.26 1.42 -0.03 0 -5.26 1.43 -0.03 0 -5.26 1.46 -0.03 0 -5.24 1.47 -0.03 0 -5.24 1.51 -0.03 0 -5.24 1.52 -0.03 0 -5.22 1.55 -0.03 0 -5.22 1.56 -0.03 0 -10.46 3.18 -0.03 0 -5.2 1.63 -0.03 0 -5.19 1.64 -0.03 0 -5.19 1.67 -0.03 0 -5.17 1.68 -0.03 0 -5.17 1.7 -0.03 0 -5.17 1.73 -0.03 0 -5.15 1.74 -0.03 0 -5.15 1.76 -0.03 0 -5.14 1.78 -0.03 0c-31.01,10.74 -61.61,22.56 -91.74,35.38l-0.02 0c-5.02,2.13 -10.02,4.31 -15.01,6.51l-0.02 0c-4.99,2.19 -9.96,4.42 -14.93,6.67l-0.02 0 -4.95 2.27 -0.02 0 -4.94 2.27 -0.02 0 -9.87 4.63 -0.01 0 -4.92 2.33 -0.01 0 -4.91 2.36 -0.01 0 -4.9 2.37 -0.02 0 -4.89 2.39 -0.01 0 -4.88 2.41 -0.01 0 -4.88 2.43 -0.01 0 -4.86 2.45 -0.01 0 -4.86 2.47 -4.86 2.5 -4.84 2.51 -4.84 2.53 -4.83 2.55 -4.81 2.56 -0.01 0 -4.8 2.59 -0.01 0 -4.68 2.54 -0.01 0 -4.66 2.56 -0.01 0 -4.66 2.57 -0.01 0 -4.65 2.6 -0.01 0 -4.64 2.61 -0.01 0 -4.63 2.63 -0.01 0 -4.61 2.64 -0.02 0 -4.6 2.66 -0.01 0 -4.6 2.68 -0.01 0 -4.59 2.7 -0.01 0 -4.58 2.71 -0.01 0 -4.57 2.73 -0.01 0 -4.56 2.75 -0.01 0 -4.55 2.76 -0.01 0 -4.54 2.79 -0.01 0 -4.53 2.79 -0.01 0 -4.52 2.82 -0.01 0 -4.5 2.83 -0.01 0 -4.5 2.85 -0.01 0 -4.49 2.87 -0.01 0 -4.48 2.88 -0.01 0 -4.46 2.9 -0.01 0 -4.46 2.92 -0.01 0 -4.45 2.93 -4.44 2.95 -0.01 0 -4.42 2.97 -4.41 2.98 -4.4 3 -4.39 3.02 -0.01 0 -4.37 3.03 -0.01 0 -4.36 3.05 -4.36 3.06 -4.35 3.09 -4.34 3.09 -4.32 3.12 -4.31 3.13 -0.01 0 -4.3 3.15 -4.29 3.16 -4.28 3.18 -4.26 3.2 -0.01 0 -4.25 3.21 -0.01 0 -8.48 6.49 -0.01 0c-29.58,22.78 -58.33,46.74 -86.21,71.93 -13.2,46.38 -22,94.1 -26.22,142.55l-0.01 0 -0.31 3.83 -0.01 0 -0.29 3.83 -0.01 0 -0.55 7.67 -0.01 0 -0.23 3.84 -0.01 0 -0.22 3.84 -0.01 0 -0.19 3.85 -0.01 0 -0.18 3.84 -0.01 0 -0.16 3.85 -0.01 0 -0.14 3.86 -0.01 0 -0.12 3.85 -0.01 0 -0.1 3.86 -0.01 0 -0.08 3.86 -0.01 0 -0.07 3.86 -0.05 3.86 -0.03 3.87 -0.02 3.86 0.01 3.87 0.02 3.87 0.04 3.88 0.01 0 0.06 3.87 0.08 3.88 0.1 3.88 0.01 0 0.11 3.88 0.01 0 0.13 3.88 0.01 0 0.15 3.88 0.01 0 0.47 0.28 0.01 0 0.47 0.28 0.47 0.28 0.01 0 0.47 0.28 0.01 0 0.47 0.28 0.01 0 0.47 0.28 0.48 0.28 0.48 0.28 0.47 0.28 0.01 0 0.47 0.28 0.01 0 0.47 0.28 0.48 0.28 0.48 0.28 0.48 0.28 0.48 0.28 0.48 0.28 0.47 0.28 0.48 0.28 0.48 0.28 0.48 0.28 0.48 0.28 0.48 0.28 0.48 0.28 0.47 0.28 0.01 0 0.47 0.28 0.01 0 0.47 0.27 0.01 0 0.47 0.28 0.48 0.28 0.48 0.28 0.48 0.28 0.48 0.28 0.48 0.27 0.48 0.28 0.47 0.28 0.01 0 0.47 0.28 0.01 0 0.47 0.27 0.01 0 0.47 0.28 0.01 0 0.47 0.28 0.01 0 0.47 0.28 0.01 0 0.47 0.27 0.01 0 0.47 0.28 0.01 0 0.47 0.28 0.01 0 0.47 0.27 0.01 0 0.47 0.28 0.01 0 0.47 0.27 0.01 0 0.47 0.28 0.01 0 0.47 0.28 0.01 0 0.47 0.27 0.01 0 0.47 0.28 0.01 0 0.47 0.27 0.01 0 0.47 0.28 0.01 0 0.47 0.27 0.01 0 0.48 0.28 0.46 0.27 0.51 0.28 0.46 0.27 0.51 0.28 0.46 0.27 0.02 0 0.46 0.27 0.51 0.28 0.46 0.27 0.02 0 0.46 0.27 0.51 0.28 0.46 0.27 0.02 0 1.1 0.63 0.01 0 1.1 0.64 0.02 0 1.1 0.63 0.01 0 1.1 0.63 0.02 0 1.1 0.63 0.02 0 1.1 0.63 0.01 0 1.11 0.63 0.01 0 1.1 0.63 0.01 0 1.11 0.63 0.01 0 1.11 0.63 0.01 0 1.11 0.63 0.01 0 1.11 0.62 1.11 0.63 0.01 0 1.11 0.62 0.01 0 1.11 0.63 0.01 0 1.11 0.62 0.01 0 1.11 0.62 0.01 0 1.11 0.62 0.01 0 1.11 0.62 0.01 0 1.11 0.63 0.01 0 1.11 0.62 0.01 0 1.11 0.61 0.01 0 1.12 0.62 1.12 0.62 1.12 0.62 1.12 0.61 0.01 0 1.11 0.62 0.01 0 1.12 0.61 1.12 0.62 0.01 0 1.11 0.61 0.01 0 1.12 0.61 1.12 0.61 0.01 0 1.11 0.61 0.01 0 1.12 0.61 0.01 0 1.11 0.61 0.01 0 1.12 0.61 0.01 0 1.11 0.61 0.01 0 1.12 0.61 0.01 0 1.12 0.6 1.12 0.61 0.01 0 1.12 0.61 0.01 0 1.11 0.6 0.01 0 1.12 0.6 0.01 0 1.12 0.61 0.01 0 1.12 0.6 1.13 0.6 1.12 0.6 0.01 0 1.12 0.6 0.01 0 1.12 0.6 0.01 0 1.12 0.6 0.01 0 1.12 0.59 0.01 0 1.12 0.6 0.01 0 1.12 0.6 0.01 0 1.12 0.59 0.01 0 1.12 0.6 0.01 0 1.13 0.59 1.13 0.59 1.13 0.59 1.13 0.6 0.01 0 1.12 0.59 0.01 0 1.13 0.59 1.13 0.58 1.14 0.59 1.13 0.59 1.41 -4.12 1.43 -4.11 1.45 -4.09 1.49 -4.09 1.51 -4.07 1.54 -4.06 1.56 -4.05 1.58 -4.04 0.01 0 1.6 -4.03 1.63 -4.01 0.01 0 1.65 -4.01 1.67 -3.99 0.01 0 1.7 -3.98 1.72 -3.96 0.01 0 1.74 -3.96 0.01 0 1.76 -3.94 0.01 0 1.79 -3.93 0.01 0 1.81 -3.91 0.01 0 1.83 -3.91 0.01 0zm505.42 1124.73c1.97,1.78 3.94,3.57 5.86,5.37l-5.86 -5.37zm1295.46 -3634.31c-3.79,18.66 -10.77,-2.27 0,0zm851.18 1325.21c28.97,-53.96 164.41,-96.11 179.52,-100.64 29.4,-8.24 34.99,-35.87 42.73,-54.8 21.45,-52.37 -100.18,-231.58 146.66,-233.09 144.36,-0.89 194.12,-36.44 193.81,-90.11 -0.47,-78.78 -144.89,-157.74 -190.69,-217.07 61.39,-48.69 17.61,-90.89 -13.07,-95.4 2.29,-0.27 4.16,-1.07 5.05,-2.74 96.68,-178.79 -100.76,-201.02 -223.25,-208.26 -133.78,-7.89 -147.31,-46.05 -225.84,19.75 -89.38,-60.02 -124.87,-101.75 -185.14,-46.72 -12.85,11.74 -33.67,30.72 -81.16,51.95l-49.52 -0.86c-55.72,-1.07 -117.19,3.62 -118,2.96 -87.14,-71.4 19.37,-175.71 -224.27,-175.55 -98.8,0.07 -0.25,-110.57 -102.73,-172.34 -2.11,-1.27 -3.85,-1.97 -5.28,-2.28 0.89,-4.36 1.61,-10.88 1.88,-20.38 1.13,-40.73 -23.95,-57.62 -156.05,-61.38 -205.28,-5.88 -212.34,115.23 -241.52,134.09 -25.12,16.23 -120.84,24.1 -182.28,62.56 -133.29,83.41 -27.34,206.19 -17.84,234.07 -29.64,53 -478.83,44.74 -538.21,-27.31 -69.31,-84.15 -343.62,-58.29 -412.31,-51.64 -105.62,10.21 -243.61,145.59 -273.59,157.01 -35.6,13.54 -39.01,57.96 -11.51,78.1 2.28,1.67 -1.28,6.22 -0.25,14.71 2.76,22.01 5.67,45.43 22.31,68.55 155.33,215.94 -70.79,112.7 -229.43,721.7 -23.03,88.44 107.59,170.48 182.78,190.04 31.57,8.22 58.58,4.37 74.83,-14.21 3.8,-0.7 54.49,1.92 112.8,5.61 174.56,11.01 143.45,36.89 183.56,39.11 51.64,2.83 257.81,-77.96 296.75,-118.98 10.03,-10.55 15.76,-22.34 16.49,-35.5 6.52,-39.68 177.93,-106.32 222.13,-96.31 216.28,86.43 218.49,101.02 221.66,121.99 3.8,25.32 8.24,54.57 54.48,100.16 64.22,63.25 79.02,92.64 84.48,103.48 16.92,33.64 57.78,42.28 90.12,84.02 -13.28,2.17 -25.31,2.47 -27.06,0.85 -20.18,-18.12 -49.19,-15.56 -65.29,4.26 -0.15,0.21 -148.56,-16.77 -82.06,126.52 13.44,28.99 -211.29,257.91 -41.65,309.46 58.2,17.68 204.99,-83.7 209.99,-57.85 8.99,46.44 67.91,49.8 84.96,11.09 9.8,-22.1 3.01,-62.56 -5.79,-99.39l61.3 -56.51c49.03,-64.68 83.27,-141.59 90.04,-199.72 4.03,-34.67 58.82,-67.73 100.71,-81.27 1.43,3.92 3.37,7.97 5.99,12.08 7.48,12.6 18.39,18.64 31.18,22.72 -14.25,33.58 23.23,66.36 66.17,52.62 56.59,-18.11 95.16,54.63 197.07,-5.61 36.82,-21.77 52.79,-0.82 74.97,-2.72 -74.01,40.89 -196.79,123.51 -146.04,191.48 22.74,30.46 69.86,34.94 122.81,40.03 134.93,12.86 81.77,10 87.5,70.22 5.23,55.02 10.76,113 47.51,140.11 98.98,73.03 240.13,-183.03 257.09,-177.86 33.74,10.28 58.76,17.9 91.77,-52.43 55.48,-118.26 183.7,29.9 213.36,-172.15 5.66,-38.52 -0.36,-65.5 -13.77,-83.76 -58.51,-79.77 -186.7,31.17 -202.72,60.99l-1.01 6.42c-36.09,-2.7 -103.14,-95.26 -114.93,-105.12 57.05,-26.59 55.67,-124.54 66.84,-138.01 87.43,-105.43 189.93,-85.62 240.98,-180.76zm3174.92 2309.03c-131.01,0 -249.46,-28.47 -355.38,-85.39 -105.9,-56.94 -189.16,-135.91 -249.77,-236.92 -60.61,-101.03 -90.9,-215.19 -90.9,-342.53 0,-127.32 30.3,-241.5 90.9,-342.51 60.61,-101.01 143.87,-179.98 249.77,-236.92 105.92,-56.94 224.98,-85.4 357.21,-85.4 111.42,0 212.12,19.58 302.13,58.78 77.31,33.66 144,79.97 200.07,138.93 7.6,7.97 11.25,17.58 10.89,28.57 -0.35,11 -4.63,20.34 -12.72,27.81l-133.49 123.22c-15.6,14.41 -39.78,13.95 -54.82,-1.05 -82.12,-81.88 -181.27,-122.82 -297.37,-122.82 -79.58,0 -150.59,17.45 -213.04,52.33 -62.43,34.9 -111.11,83.57 -145.99,146.01 -34.9,62.44 -52.35,133.46 -52.35,213.03 0,79.59 17.45,150.6 52.35,213.04 34.88,62.44 83.56,111.12 145.99,146 62.45,34.9 133.47,52.35 213.04,52.35 116.1,0 215.25,-41.46 297.38,-124.32 15,-15.14 39.33,-15.68 54.98,-1.22l133.54 123.26c8.05,7.44 12.32,16.71 12.73,27.66 0.39,10.94 -3.17,20.51 -10.66,28.5 -56.24,60.11 -123.41,107.05 -201.47,140.79 -90.58,39.18 -191.62,58.77 -303.03,58.77zm1686.8 -665.01c44.81,22.14 81.26,51.01 109.34,86.51 41.62,52.64 62.45,117.53 62.45,194.68 0,113.86 -43.17,202.63 -129.47,266.29 -86.33,63.67 -209.67,95.5 -370.08,95.5l-593.99 0c-21.81,0 -39.6,-17.79 -39.6,-39.6l0 -1206.39c0,-21.81 17.79,-39.59 39.6,-39.59l559.11 0c149.37,0 265.69,28.78 348.94,86.33 83.26,57.53 124.89,139.58 124.89,246.09 0,63.68 -15.92,119.69 -47.75,168.05 -18.87,28.65 -42.23,53.78 -70.12,75.32 -11.11,8.6 -16.58,21.29 -15.18,35.26 1.41,13.98 9.26,25.34 21.87,31.56zm-626.08 -110.01l237.71 0c64.9,0 113.88,-13.16 146.93,-39.49 33.07,-26.32 49.58,-65.19 49.58,-116.6 0,-50.2 -16.84,-88.77 -50.5,-115.72 -33.66,-26.93 -82.34,-40.4 -146.01,-40.4l-237.71 0c-21.81,0 -39.59,17.78 -39.59,39.59l0 233.03c0,21.81 17.78,39.59 39.59,39.59zm287.31 532.6c139.58,0 209.37,-55.1 209.37,-165.29 0,-106.52 -69.79,-159.78 -209.37,-159.78l-287.31 0c-21.81,0 -39.59,17.79 -39.59,39.59l0 245.88c0,21.81 17.78,39.6 39.59,39.6l287.31 0zm1753.9 -1025.61l0 1206.39c0,21.81 -17.78,39.6 -39.59,39.6l-214.66 0c-21.81,0 -39.59,-17.79 -39.59,-39.6l0 -262.4c0,-21.81 -17.79,-39.6 -39.6,-39.6l-211.02 0c-13.64,0 -25.39,6.28 -32.95,17.63l-204.2 306.35c-7.57,11.36 -19.32,17.63 -32.95,17.63l-217.3 0c-15.1,0 -28.07,-7.84 -35.08,-21.23 -7.01,-13.38 -6.09,-28.49 2.52,-40.91l198.32 -286.63c6.71,-9.71 8.71,-20.67 5.86,-32.13 -2.86,-11.45 -9.78,-20.2 -20.27,-25.6 -67.07,-34.62 -120.09,-81.86 -158.96,-141.72 -46.51,-71.62 -69.79,-157.64 -69.79,-258.04 0,-99.17 22.65,-184.57 67.96,-256.19 45.29,-71.63 109.58,-126.72 192.83,-165.29 83.27,-38.57 181.22,-57.86 293.85,-57.86l515.04 0c21.81,0 39.59,17.78 39.59,39.59zm-547.28 202.83c-84.49,0 -149.08,19.59 -193.77,58.78 -44.68,39.18 -67.03,97.34 -67.03,174.46 0,74.69 21.42,132.24 64.28,172.64 42.85,40.4 105.9,60.61 189.16,60.61l221.19 0c21.81,0 39.6,-17.79 39.6,-39.6l0 -387.28c0,-21.81 -17.79,-39.6 -39.6,-39.6l-213.83 0zm1811.62 0l-332.18 0c-21.81,0 -39.59,17.79 -39.59,39.6l0 963.96c0,21.81 -17.79,39.6 -39.6,39.6l-214.65 0c-21.81,0 -39.6,-17.79 -39.6,-39.6l0 -963.96c0,-21.81 -17.78,-39.6 -39.59,-39.6l-330.35 0c-21.81,0 -39.6,-17.78 -39.6,-39.59l0 -163.24c0,-21.81 17.79,-39.59 39.6,-39.59l1035.58 0c21.81,0 39.6,17.78 39.6,39.59l0 163.24c0,21.81 -17.79,39.59 -39.6,39.59zm821.98 1065.2c-133.47,0 -253.76,-28.77 -360.89,-86.32 -107.12,-57.53 -191,-136.82 -251.61,-237.84 -60.61,-101.01 -90.9,-214.57 -90.9,-340.68 0,-126.1 30.3,-239.66 90.9,-340.67 60.61,-101.02 144.49,-180.29 251.61,-237.84 107.14,-57.55 227.43,-86.32 360.89,-86.32 133.45,0 253.43,28.76 359.95,86.32 106.52,57.54 190.4,136.82 251.62,237.84 61.22,101.01 91.82,214.57 91.82,340.67 0,126.11 -30.6,239.67 -91.82,340.68 -61.21,101.02 -145.09,180.3 -251.62,237.84 -106.51,57.54 -226.5,86.32 -359.95,86.32zm0 -253.43c75.9,0 144.47,-17.45 205.68,-52.35 61.22,-34.88 109.28,-83.56 144.16,-146 34.9,-62.44 52.35,-133.46 52.35,-213.04 0,-79.58 -17.45,-150.59 -52.35,-213.03 -34.88,-62.44 -82.94,-111.11 -144.16,-146.01 -61.21,-34.88 -129.78,-52.33 -205.68,-52.33 -75.92,0 -144.49,17.45 -205.7,52.33 -61.22,34.9 -109.28,83.57 -144.17,146.01 -34.89,62.44 -52.34,133.46 -52.34,213.03 0,79.59 17.45,150.6 52.34,213.04 34.89,62.44 82.95,111.12 144.17,146 61.21,34.9 129.78,52.35 205.7,52.35zm1540.85 253.43c-131.01,0 -249.46,-28.47 -355.38,-85.39 -105.9,-56.94 -189.16,-135.91 -249.77,-236.92 -60.61,-101.03 -90.9,-215.19 -90.9,-342.53 0,-127.32 30.3,-241.5 90.9,-342.51 60.61,-101.01 143.87,-179.98 249.77,-236.92 105.92,-56.94 224.98,-85.4 357.21,-85.4 111.42,0 212.12,19.58 302.12,58.78 77.32,33.66 144.01,79.97 200.08,138.93 7.59,7.97 11.24,17.58 10.89,28.57 -0.35,11 -4.63,20.34 -12.72,27.81l-133.49 123.22c-15.6,14.41 -39.78,13.95 -54.82,-1.05 -82.13,-81.88 -181.27,-122.82 -297.38,-122.82 -79.57,0 -150.59,17.45 -213.03,52.33 -62.43,34.9 -111.11,83.57 -145.99,146.01 -34.9,62.44 -52.35,133.46 -52.35,213.03 0,79.59 17.45,150.6 52.35,213.04 34.88,62.44 83.56,111.12 145.99,146 62.44,34.9 133.47,52.35 213.03,52.35 116.11,0 215.25,-41.46 297.39,-124.32 15,-15.14 39.32,-15.68 54.98,-1.22l133.54 123.26c8.05,7.44 12.32,16.71 12.72,27.66 0.4,10.94 -3.16,20.51 -10.65,28.5 -56.24,60.11 -123.41,107.05 -201.47,140.79 -90.58,39.18 -191.62,58.77 -303.03,58.77zm1906 -1268.03l0 1206.39c0,21.77 -17.82,39.6 -39.59,39.6l-214.66 0c-21.77,0 -39.59,-17.79 -39.59,-39.6l0 -963.96c0,-21.81 -17.82,-39.6 -39.6,-39.6l-362.9 0c-21.3,0 -38.87,16.96 -39.58,38.24l-7.87 229.9c-6.12,182.42 -20.82,330.29 -44.07,443.51 -23.25,113.24 -62.16,200.21 -116.62,260.8 -54.46,60.59 -130.73,90.91 -228.66,90.91 -32.13,0 -69.72,-4.29 -112.64,-12.78 -19.69,-3.88 -33.25,-21.67 -31.79,-41.72l12.7 -173.79c1.58,-21.65 20.44,-38.01 42.1,-36.62 4.62,0.28 9.45,0.45 14.34,0.45 71.01,0 120.62,-41.95 148.76,-125.8 28.16,-83.85 45.92,-215.19 53.26,-393.95l17.02 -483.38c0.76,-21.31 18.26,-38.2 39.57,-38.2l910.24 0c21.81,0 39.59,17.86 39.59,39.59zm1165.44 970.51l-543.91 0c-16.33,0 -30.37,9.39 -36.59,24.47l-93.64 226.55c-6.22,15.08 -20.28,24.47 -36.6,24.47l-217.38 0c-13.77,0 -25.69,-6.45 -33.2,-18.04 -7.52,-11.59 -8.58,-25.05 -2.96,-37.67l537.7 -1206.39c6.52,-14.6 20.18,-23.48 36.17,-23.48l242.46 0c15.97,0 29.64,8.89 36.16,23.43l539.43 1206.39c5.63,12.58 4.6,26.1 -2.92,37.7 -7.51,11.6 -19.45,18.06 -33.23,18.06l-224.65 0c-16.33,0 -30.37,-9.34 -36.6,-24.47l-93.64 -226.55c-6.23,-15.12 -20.31,-24.47 -36.59,-24.47zm-89.85 -280.64l-144.61 -349.12c-6.24,-15.11 -20.23,-24.44 -36.58,-24.44 -16.36,0 -30.35,9.37 -36.58,24.44l-144.59 349.12c-5.19,12.55 -3.93,25.82 3.66,37.15 7.58,11.33 19.3,17.61 32.92,17.61l289.19 0c13.63,0 25.36,-6.28 32.93,-17.61 7.58,-11.33 8.85,-24.56 3.66,-37.15zm1674.56 -86.85c44.78,22.08 81.29,51.02 109.35,86.51 41.61,52.62 62.44,117.53 62.44,194.68 0,113.86 -43.16,202.64 -129.47,266.29 -86.31,63.67 -209.7,95.5 -370.07,95.5l-594 0c-21.77,0 -39.59,-17.79 -39.59,-39.6l0 -1206.39c0,-21.81 17.78,-39.59 39.59,-39.59l559.12 0c149.37,0 265.68,28.78 348.94,86.33 83.26,57.53 124.88,139.58 124.88,246.09 0,63.68 -15.93,119.72 -47.75,168.05 -18.83,28.64 -42.24,53.81 -70.11,75.32 -11.09,8.58 -16.58,21.29 -15.18,35.26 1.39,13.97 9.31,25.37 21.86,31.56zm-626.07 -110.01l237.71 0c64.9,0 113.88,-13.16 146.93,-39.49 33.06,-26.32 49.58,-65.19 49.58,-116.6 0,-50.2 -16.85,-88.8 -50.5,-115.72 -33.64,-26.91 -82.38,-40.4 -146.01,-40.4l-237.71 0c-21.77,0 -39.6,17.82 -39.6,39.59l0 233.03c0,21.77 17.79,39.59 39.6,39.59zm287.31 532.6c139.58,0 209.37,-55.1 209.37,-165.29 0,-106.52 -69.83,-159.78 -209.37,-159.78l-287.31 0c-21.77,0 -39.6,17.82 -39.6,39.59l0 245.88c0,21.77 17.79,39.6 39.6,39.6l287.31 0zm-8859.64 -4572.74l0 1008.5 -92.08 0 0 -609.07c0,-98.21 3.79,-203.98 11.35,-317.28 -19.83,62.31 -42.71,123.06 -66.58,182.73l-297.45 743.62 -86.4 0 -301.7 -735.14c-20.57,-50.13 -42.98,-111.9 -66.58,-185.54 7.56,110.47 11.33,213.51 11.33,308.78l0 611.9 -92.06 0 0 -1008.5 130.31 0 293.2 719.56c9.56,23.44 32.58,86.87 69.4,189.8 4.73,-12.27 14.7,-40.66 29.74,-84.98 15.06,-44.33 27.39,-78.38 36.83,-102l288.95 -722.38 131.73 0zm274.8 -4.25l0 145.9 -89.24 0 0 -145.9 89.24 0zm0 284.71l0 728.04 -89.24 0 0 -728.04 89.24 0zm457.51 362.6l-269.12 365.44 -109.07 0 315.87 -424.94 -284.7 -303.11 120.4 0 335.7 371.1 0 -371.1 89.22 0 0 369.67 335.7 -369.67 120.4 0 -284.7 303.11 315.87 424.94 -109.07 0 -269.12 -365.44 -109.08 113.31 0 252.13 -89.22 0 0 -252.13 -109.08 -113.31zm1355.54 365.44l-89.24 0 0 -342.77 -415.01 0 0 342.77 -89.24 0 0 -728.04 89.24 0 0 310.2 415.01 0 0 -310.2 89.24 0 0 728.04zm807.38 -72.24l0 67.99c-21.71,7.56 -45.33,11.35 -70.82,11.35 -38.71,0 -64.26,-11.86 -76.5,-35.42 -12.22,-23.56 -18.41,-56.19 -18.41,-97.74 -61.38,97.27 -152.97,145.9 -274.79,145.9 -74.61,0 -132.91,-17.94 -174.93,-53.83 -42.02,-35.87 -63.04,-85.93 -63.04,-150.13 0,-131.27 90.2,-206.46 270.55,-225.23 9.36,-0.96 22.66,-2.11 39.66,-3.53 16.99,-1.42 29.51,-2.61 37.53,-3.55 8.03,-0.94 18.46,-2.18 31.17,-3.55 12.69,-1.36 22.24,-2.65 28.32,-3.55 6.09,-0.88 13.75,-2.4 22.67,-4.25 8.92,-1.83 16.1,-3.82 21.25,-5.66 5.14,-1.83 10.67,-4.06 16.3,-6.37 5.61,-2.3 11.02,-4.82 15.58,-7.78 17.07,-11.1 25.49,-34.48 25.49,-69.4 0,-57.62 -16.1,-98.27 -48.16,-121.82 -32.06,-23.57 -79.32,-35.41 -141.65,-35.41 -61.37,0 -108.36,13.92 -140.93,41.77 -32.58,27.85 -51.71,71.06 -57.36,129.61l-84.99 0c3.79,-78.38 31.23,-138.86 82.16,-181.3 50.94,-42.44 121.33,-63.74 211.05,-63.74 83.09,0 148.53,17.98 196.16,53.83 47.63,35.82 71.54,87.91 71.54,155.8l0 396.6c0,18.78 0.53,32.4 1.41,40.38 0.9,7.97 4.97,15.58 12.05,22.65 7.07,7.07 18.64,10.63 34.7,10.63 12.27,0 23.6,-1.41 33.99,-4.25zm-169.98 -324.35c-8.5,9.44 -22.48,17.28 -41.77,23.36 -19.32,6.09 -37.08,10.65 -53.12,13.47 -16.05,2.83 -43.45,6.84 -82.16,11.34 -9.36,1.07 -16.54,2.21 -21.24,2.83 -30.16,4 -55.07,8.07 -74.37,12.75 -19.32,4.67 -41.6,12.57 -66.58,23.37 -24.98,10.81 -43.97,26.02 -56.66,45.33 -12.7,19.31 -19.12,43.2 -19.12,71.53 0,42.5 15.16,76.3 45.32,101.28 30.17,24.96 70.82,37.53 121.83,37.53 68.92,0 127.51,-20.59 175.62,-61.61 48.12,-41.04 72.24,-95.15 72.24,-162.19l0 -118.98zm351.28 -331.45l0 140.22c52.89,-107.65 139.76,-161.48 260.63,-161.48 99.16,0 178.71,35.42 238.67,106.24 59.97,70.82 89.94,164.78 89.94,281.87 0,115.19 -29.75,207.99 -89.24,278.33 -59.48,70.34 -138.33,105.53 -236.55,105.53 -122.75,0 -208.68,-52.41 -257.79,-157.23l0 406.51 -86.4 0 0 -1000 80.73 0zm431.31 138.1c-44.85,-57.13 -105.52,-85.7 -182.02,-85.7 -76.49,0 -136.73,27.91 -180.59,83.57 -43.86,55.67 -65.86,132.2 -65.86,229.47 0,95.37 22.42,170.92 67.27,226.63 44.86,55.71 105.53,83.56 182.02,83.56 74.6,0 134.38,-28.15 179.18,-84.28 44.81,-56.14 67.28,-131.02 67.28,-224.5 0,-95.38 -22.43,-171.62 -67.28,-228.75zm606.94 -159.36c104.81,0 188.16,34.94 250.01,104.82 61.85,69.87 92.78,164.3 92.78,283.29 0,118.03 -30.74,211.33 -92.08,279.75 -61.33,68.4 -144.95,102.68 -250.72,102.68 -105.75,0 -190.03,-34.7 -252.83,-104.11 -62.8,-69.4 -94.2,-163.14 -94.2,-281.17 0,-117.09 31.4,-210.58 94.2,-280.45 62.8,-69.88 147.07,-104.82 252.83,-104.82zm184.15 159.36c-46.17,-56.09 -108.13,-84.28 -185.56,-84.28 -77.43,0 -139.33,28.14 -185.55,84.28 -46.22,56.13 -69.4,131.5 -69.4,225.91 0,96.32 22.9,172.34 68.7,228.06 45.81,55.71 108.84,83.56 189.09,83.56 77.45,0 138.87,-27.9 184.15,-83.56 45.27,-55.67 67.99,-131.26 67.99,-226.63 0,-95.38 -23.24,-171.26 -69.4,-227.34zm956.09 822.24l-89.24 0 0 -232.3 -586.42 0 0 232.3 -89.23 0 0 -307.37 86.41 0c67.04,-123.71 100.56,-310.2 100.56,-559.49l0 -93.48 475.92 0 0 652.97 101.99 0 0 307.37zm-191.22 -307.37l0 -577.91 -300.28 0 0 48.17c0,228.41 -31.64,405.09 -94.91,529.74l395.19 0zm882.44 75.07l-89.24 0 0 -342.77 -415.01 0 0 342.77 -89.24 0 0 -728.04 89.24 0 0 310.2 415.01 0 0 -310.2 89.24 0 0 728.04zm760.63 0l-89.24 0 0 -623.23 -393.77 623.23 -110.48 0 0 -728.04 89.24 0 0 623.23 393.78 -623.23 110.47 0 0 728.04zm262.05 -1011.34l55.24 0c4.73,35.88 19.83,64.22 45.32,84.99 25.49,20.76 59.02,31.16 100.57,31.16 40.61,0 74.17,-10.2 100.57,-30.45 26.39,-20.26 42.96,-48.87 49.57,-85.7l55.25 0c-21.73,122.76 -90.66,184.14 -206.82,184.14 -58.54,0 -104.62,-15.86 -138.09,-47.45 -33.47,-31.59 -54.06,-77.2 -61.62,-136.69zm498.58 1011.34l-89.24 0 0 -623.23 -393.77 623.23 -110.48 0 0 -728.04 89.24 0 0 623.23 393.78 -623.23 110.47 0 0 728.04zm-9346.42 1222.38c0,-87.8 -23.13,-159.57 -69.4,-215.29 -46.27,-55.72 -104.82,-83.57 -175.64,-83.57 -75.55,0 -136.69,27.15 -183.43,81.45 -46.74,54.29 -70.11,126.77 -70.11,217.41 0,89.72 23.37,162.89 70.11,219.56 46.74,56.67 106.47,84.98 179.18,84.98 72.71,0 132.45,-28.32 179.18,-84.98 46.74,-56.67 70.12,-129.84 70.12,-219.56zm784.7 358.37l-89.24 0 0 -652.98 -297.45 0 -12.74 365.44c-3.78,105.76 -21.26,182.73 -52.41,230.88 -31.16,48.15 -76.96,72.23 -137.4,72.23 -26.44,0 -52.4,-5.18 -77.91,-15.58l0 -72.24c17,8.51 43.44,12.75 79.34,12.75 61.37,0 94.89,-77.43 100.56,-232.29l14.16 -436.26 473.08 0 0 728.04zm804.55 -72.24l0 67.99c-21.71,7.56 -45.33,11.35 -70.82,11.35 -38.71,0 -64.21,-11.81 -76.49,-35.42 -12.28,-23.61 -18.42,-56.19 -18.42,-97.73 -61.38,97.26 -152.97,145.89 -274.79,145.89 -74.61,0 -132.91,-17.94 -174.93,-53.83 -42.02,-35.87 -63.04,-85.93 -63.04,-150.13 0,-131.26 90.19,-206.34 270.55,-225.23 9.44,-0.94 22.67,-2.11 39.66,-3.53 16.99,-1.42 29.5,-2.61 37.54,-3.55 8.02,-0.95 18.4,-2.13 31.16,-3.55 12.74,-1.41 22.19,-2.6 28.32,-3.55 6.14,-0.93 13.7,-2.35 22.67,-4.25 8.97,-1.88 16.05,-3.77 21.25,-5.66 5.19,-1.88 10.63,-4.01 16.3,-6.37 5.66,-2.35 10.86,-4.96 15.58,-7.78 16.99,-11.35 25.49,-34.48 25.49,-69.4 0,-57.62 -16.05,-98.22 -48.16,-121.82 -32.11,-23.62 -79.32,-35.41 -141.64,-35.41 -61.38,0 -108.36,13.92 -140.94,41.77 -32.58,27.85 -51.69,71.06 -57.35,129.61l-85 0c3.79,-78.38 31.18,-138.81 82.16,-181.3 50.99,-42.49 121.33,-63.74 211.05,-63.74 83.09,0 148.48,17.93 196.16,53.83 47.69,35.87 71.54,87.81 71.54,155.8l0 396.6c0,18.89 0.47,32.35 1.41,40.38 0.95,8.02 4.96,15.58 12.05,22.65 7.07,7.09 18.64,10.63 34.7,10.63 12.27,0 23.6,-1.41 33.99,-4.25zm-169.98 -324.35c-8.5,9.44 -22.43,17.22 -41.77,23.36 -19.37,6.14 -37.08,10.64 -53.12,13.47 -16.06,2.83 -43.44,6.61 -82.16,11.34 -9.45,0.95 -16.52,1.88 -21.24,2.83 -30.23,3.78 -55.02,8.02 -74.37,12.75 -19.37,4.72 -41.55,12.52 -66.58,23.38 -25.03,10.85 -43.92,25.96 -56.66,45.32 -12.75,19.36 -19.12,43.2 -19.12,71.53 0,42.5 15.11,76.25 45.32,101.28 30.23,25.01 70.82,37.53 121.83,37.53 68.92,0 127.47,-20.54 175.62,-61.61 48.17,-41.09 72.24,-95.15 72.24,-162.19l0 -118.98zm756.38 -256.38l-393.77 0 0 652.98 -89.24 0 0 -728.04 483.01 0 0 75.06zm349.86 -96.32c104.81,0 188.15,34.94 250.01,104.82 61.85,69.87 92.77,164.3 92.77,283.29 0,118.03 -30.68,211.28 -92.06,279.75 -61.38,68.46 -144.95,102.68 -250.72,102.68 -105.75,0 -190.03,-34.7 -252.83,-104.11 -62.8,-69.4 -94.2,-163.13 -94.2,-281.17 0,-117.09 31.4,-210.58 94.2,-280.45 62.8,-69.88 147.07,-104.82 252.83,-104.82zm184.14 159.36c-46.27,-56.19 -108.12,-84.28 -185.55,-84.28 -77.44,0 -139.28,28.09 -185.55,84.28 -46.27,56.18 -69.4,131.5 -69.4,225.91 0,96.32 22.89,172.34 68.7,228.06 45.81,55.71 108.83,83.56 189.09,83.56 77.45,0 138.81,-27.85 184.15,-83.56 45.32,-55.72 67.98,-131.26 67.98,-226.63 0,-95.38 -23.13,-171.16 -69.4,-227.34zm956.1 822.24l-89.24 0 0 -232.3 -586.42 0 0 232.3 -89.23 0 0 -307.37 86.4 0c67.04,-123.7 100.57,-310.2 100.57,-559.49l0 -93.48 475.92 0 0 652.97 101.99 0 0 307.37zm-191.22 -307.37l0 -577.91 -300.29 0 0 48.17c0,228.51 -31.64,405.09 -94.9,529.74l395.19 0zm381.02 -937.68l0 145.9 -89.24 0 0 -145.9 89.24 0zm0 284.71l0 728.04 -89.24 0 0 -728.04 89.24 0zm264.88 -283.3l55.24 0c4.72,35.88 19.83,64.21 45.32,84.99 25.5,20.76 59.02,31.16 100.56,31.16 40.61,0 74.13,-10.15 100.58,-30.45 26.44,-20.31 42.96,-48.87 49.57,-85.7l55.24 0c-21.73,122.76 -90.65,184.14 -206.81,184.14 -58.54,0 -104.57,-15.81 -138.1,-47.45 -33.51,-31.64 -54.05,-77.2 -61.61,-136.69zm498.58 1011.34l-89.25 0 0 -623.23 -393.76 623.23 -110.49 0 0 -728.04 89.25 0 0 623.23 393.77 -623.23 110.48 0 0 728.04zm760.63 0l-89.24 0 0 -342.77 -415.01 0 0 342.77 -89.24 0 0 -728.04 89.24 0 0 310.2 415.01 0 0 -310.2 89.24 0 0 728.04zm760.63 0l-89.24 0 0 -623.23 -393.77 623.23 -110.48 0 0 -728.04 89.24 0 0 623.23 393.78 -623.23 110.47 0 0 728.04zm262.05 -1011.34l55.24 0c4.72,35.88 19.83,64.21 45.32,84.99 25.51,20.76 59.02,31.16 100.57,31.16 40.61,0 74.12,-10.15 100.57,-30.45 26.44,-20.31 42.96,-48.87 49.57,-85.7l55.24 0c-21.73,122.76 -90.65,184.14 -206.81,184.14 -58.54,0 -104.57,-15.81 -138.1,-47.45 -33.51,-31.64 -54.05,-77.2 -61.61,-136.69zm498.58 1011.34l-89.24 0 0 -623.23 -393.77 623.23 -110.48 0 0 -728.04 89.24 0 0 623.23 393.78 -623.23 110.47 0 0 728.04zm1558.08 -362.6c0,118.03 -27.15,211.52 -81.44,280.46 -54.29,68.92 -121.58,103.39 -201.85,103.39 -38.71,0 -74.6,-8.97 -107.64,-26.91 -33.06,-17.93 -58.08,-41.55 -75.07,-70.82l-2.84 0 0 348.44 -89.24 -1.4 0 -347.03c0,0.94 -0.95,0.94 -2.83,0 -17,29.27 -42.02,52.89 -75.06,70.82 -33.07,17.94 -68.94,26.91 -107.65,26.91 -80.27,0 -147.56,-34.47 -201.85,-103.39 -54.29,-68.94 -81.45,-162.43 -81.45,-280.46 0,-125.6 25.02,-221.91 75.08,-288.96 50.04,-67.04 119.91,-100.56 209.63,-100.56 82.15,0 142.58,33.05 181.3,99.15l2.83 0 0 -355.52 89.24 0 0 355.52 2.84 0c38.71,-66.1 99.15,-99.15 181.29,-99.15 89.72,0 159.6,33.52 209.64,100.56 50.05,67.05 75.07,163.37 75.07,288.96zm-89.24 0c0,-105.76 -20.3,-184.61 -60.9,-236.55 -40.61,-51.93 -93.02,-77.9 -157.23,-77.9 -45.33,0 -83.57,14.63 -114.74,43.91 -31.17,29.27 -46.74,66.57 -46.74,111.91l0 308.78c0,47.22 15.58,85.47 46.74,114.74 31.17,29.28 69.88,43.91 116.15,43.91 67.04,0 119.92,-25.49 158.64,-76.49 38.72,-51 58.07,-128.42 58.07,-232.29zm-468.84 150.13l0 -308.78c0,-45.34 -15.58,-82.64 -46.73,-111.91 -31.16,-29.28 -69.4,-43.91 -114.75,-43.91 -64.2,0 -116.6,25.97 -157.22,77.9 -40.6,51.94 -60.91,130.79 -60.91,236.55 0,103.86 19.36,181.29 58.07,232.29 38.72,51 91.6,76.49 158.64,76.49 46.27,0 85,-14.63 116.16,-43.91 31.16,-29.27 46.73,-67.52 46.73,-114.74zm1005.67 -536.83c104.81,0 188.15,34.94 250,104.82 61.85,69.87 92.78,164.3 92.78,283.29 0,118.03 -30.69,211.28 -92.08,279.75 -61.37,68.46 -144.94,102.68 -250.71,102.68 -105.75,0 -190.03,-34.7 -252.83,-104.11 -62.8,-69.4 -94.21,-163.13 -94.21,-281.17 0,-117.09 31.41,-210.58 94.21,-280.45 62.8,-69.88 147.07,-104.82 252.83,-104.82zm184.14 159.36c-46.27,-56.19 -108.12,-84.28 -185.56,-84.28 -77.43,0 -139.27,28.09 -185.54,84.28 -46.27,56.18 -69.4,131.5 -69.4,225.91 0,96.32 22.89,172.34 68.7,228.06 45.8,55.71 108.83,83.56 189.09,83.56 77.45,0 138.81,-27.85 184.14,-83.56 45.32,-55.72 67.99,-131.26 67.99,-226.63 0,-95.38 -23.13,-171.16 -69.4,-227.34zm885.27 589.94l-89.24 0 0 -342.77 -415.01 0 0 342.77 -89.24 0 0 -728.04 89.24 0 0 310.2 415.01 0 0 -310.2 89.24 0 0 728.04zm856.96 232.3l-89.24 0 0 -232.3 -586.42 0 0 232.3 -89.23 0 0 -307.37 86.41 0c67.03,-123.7 100.56,-310.2 100.56,-559.49l0 -93.48 475.92 0 0 652.97 101.99 0 0 307.37zm-191.22 -307.37l0 -577.91 -300.29 0 0 48.17c0,228.51 -31.64,405.09 -94.9,529.74l395.19 0z"/>
 </g>
</svg>
